<?xml version="1.0" encoding="UTF-8" standalone="no"?>
<!DOCTYPE svg PUBLIC "-//W3C//DTD SVG 1.1//EN" "http://www.w3.org/Graphics/SVG/1.1/DTD/svg11.dtd">
<svg width="100%" height="100%" viewBox="0 0 272 82" version="1.1" xmlns="http://www.w3.org/2000/svg" xmlns:xlink="http://www.w3.org/1999/xlink" xml:space="preserve" xmlns:serif="http://www.serif.com/" style="fill-rule:evenodd;clip-rule:evenodd;stroke-linecap:round;stroke-linejoin:round;stroke-miterlimit:1.5;">
    <g id="sig" transform="matrix(0.462985,0,0,0.462985,-196.401,-75.1153)">
        <g id="rodney2" transform="matrix(0.221515,0,0,0.221515,138.565,25.6358)">
            <path d="M1349.99,1198.8C1349.99,1198.8 1444.61,754.054 1658.31,778.032C1872.01,802.011 1747.92,1119.24 1509.75,1094.18C1509.75,1094.18 1574.71,1087 1665.75,1228.63C1747.7,1356.11 1810.22,1296.59 1840.52,1279.7C1894.16,1249.81 1968.44,1134.09 1934.56,1079.93C1915.4,1049.31 1855.71,1082.18 1835.24,1120.36C1835.24,1120.36 1764.66,1247.12 1820.44,1260.43C1876.23,1273.74 1952.98,1169.73 1953.02,1090.9C1953.02,1090.9 1986.74,1193.54 2127.42,1024.32C2212.48,922.009 2377.83,664.624 2321.45,630.795C2261.73,594.965 2104.24,1071.65 2059.68,1184.18C2026.07,1269.03 1981.34,1293.87 1952.65,1276.52C1933.84,1265.14 1931.13,1208.48 1967.11,1150.12C2015.3,1071.95 2106.09,1004.85 2084.43,1125.03C2045.92,1338.63 2145.91,1303.17 2181.34,1096.96L2128.23,1273.45C2128.23,1273.45 2317.49,1005.7 2308,1099.55C2298.5,1193.39 2225.58,1291.05 2225.58,1291.05L2465.35,1141.27C2465.35,1141.27 2481.61,1012.96 2397.26,1137.1C2312.9,1261.25 2325.18,1284.15 2380.01,1260.96C2434.85,1237.77 2605.28,1073.7 2605.28,1073.7C2589.99,1058.14 2533.51,1143.59 2514.36,1210.67C2494.23,1281.21 2513.78,1331.55 2599.16,1227.67C2644.74,1172.2 2653.99,1135.88 2695.12,1082.68C2695.12,1082.68 2679.37,1155.63 2666.8,1214.81C2649.42,1296.54 2623.35,1370.96 2520.27,1361.6C2342.54,1345.45 1786.97,1342.28 1730.55,1394.85" style="fill:none;stroke:rgb(76,68,61);stroke-width:24.38px;"/>
        </g>
        <g id="dent" transform="matrix(0.262299,0,0,0.313808,-103.031,-75.3936)">
            <path d="M2918.39,1196.64C2918.39,1196.64 2809.84,714.221 3435.74,869.09C3435.74,869.09 3450.72,874.25 3458.13,877.067C3466.22,880.144 3474.27,883.342 3482.22,886.768C3502.87,895.667 3523.71,905.477 3543.2,916.7C3593.59,945.71 3634.3,981.851 3657.69,1035.99C3673.15,1071.78 3678.54,1113.99 3658.55,1149.05C3631.91,1195.76 3573.7,1215.59 3524.26,1225.27C3506.58,1228.72 3488.69,1231.2 3470.76,1232.85C3449.7,1234.78 3428.54,1235.78 3407.39,1236C3382.79,1236.25 3358.16,1235.62 3333.6,1234.25C3305.27,1232.66 3276.98,1230.24 3248.78,1227.11C3216.55,1223.53 3184.4,1219.15 3152.37,1214.12C3156.26,1215.62 3160.17,1217.12 3164.21,1218.19C3184.44,1223.58 3198.02,1226.94 3218.06,1228.76C3266.83,1233.18 3316.77,1225.19 3359.76,1200.82C3427.27,1162.55 3469,1093.84 3494.46,1022.52C3502.3,1000.57 3507.57,982.026 3513.25,959.335C3515.91,948.7 3524.33,916.966 3520.63,927.283C3515.98,940.219 3513.19,953.771 3510.41,967.233C3510.41,967.233 3426.83,1164.09 3470.76,1232.85C3500.75,1279.79 3711.62,1188.64 3730.2,1181.59C3760.07,1170.24 3791.33,1157.67 3818.22,1140.11C3829.48,1132.76 3844.62,1122.46 3843.83,1106.8C3843.66,1103.46 3842.63,1100.16 3841.29,1097.1C3839.77,1093.66 3837.57,1090.54 3835.34,1087.52C3822.41,1070.05 3801,1075.6 3785.11,1085.97C3768.36,1096.9 3754.47,1112.52 3742.31,1128.18C3724.97,1150.52 3709.91,1175.24 3699.62,1201.64C3694.8,1214 3685.1,1237.06 3697.55,1248.29C3699.38,1249.93 3704.49,1250.1 3706.48,1249.82C3725.59,1247.16 3743.17,1241.01 3760.45,1232.51C3805.86,1210.18 3844.4,1176.55 3879.54,1140.68C3890.3,1129.7 3900.62,1118.27 3910.94,1106.87C3922.55,1094.04 3929.23,1074.35 3945.32,1068C3955.39,1064.04 3937.41,1088.16 3933.16,1098.11C3923.34,1121.12 3913.21,1144.01 3903.11,1166.9C3888.28,1200.56 3873.33,1234.17 3858.37,1267.77C3871.1,1251.46 3883.83,1235.14 3896.85,1219.05C3934.17,1172.9 3972.55,1127.54 4016.14,1087.12C4025.34,1078.6 4034.49,1072.04 4045.88,1067.1C4048.38,1066.02 4052.59,1065.65 4055.14,1067.15C4062.9,1071.7 4059.15,1089.33 4058.33,1093.58C4050.57,1134.18 4029.64,1171.44 4009.26,1206.74C3999.6,1223.47 3989.39,1239.87 3979.19,1256.26L4236.45,983.637C4236.45,983.637 3945.77,1366.65 4173.25,1233.83L2388.8,863.184" style="fill:none;stroke:rgb(76,68,61);stroke-width:18.67px;"/>
        </g>
        <g id="r1" transform="matrix(0.221515,0,0,0.221515,136.923,25.3832)">
            <path d="M1549.48,940.991L1448.59,1191.31C1448.59,1191.31 1411.36,1301.97 1309.09,1298.96" style="fill:none;stroke:rgb(76,68,61);stroke-width:24.38px;"/>
        </g>
    </g>
</svg>
