<?xml version="1.0" encoding="UTF-8" standalone="no"?>
<!DOCTYPE svg PUBLIC "-//W3C//DTD SVG 1.1//EN" "http://www.w3.org/Graphics/SVG/1.1/DTD/svg11.dtd">
<svg width="100%" height="100%" viewBox="0 0 253 253" version="1.1" xmlns="http://www.w3.org/2000/svg" xmlns:xlink="http://www.w3.org/1999/xlink" xml:space="preserve" xmlns:serif="http://www.serif.com/" style="fill-rule:evenodd;clip-rule:evenodd;stroke-linejoin:round;stroke-miterlimit:2;">
    <g transform="matrix(1.15743,0,0,2.34882,-17.2791,-301.609)">
        <path d="M91.91,128.409L14.929,128.409L14.929,166.343L91.91,166.343L91.91,128.409ZM88.454,130.112L88.454,164.64C88.454,164.64 18.385,164.64 18.385,164.64C18.385,164.64 18.385,130.112 18.385,130.112L88.454,130.112Z"/>
    </g>
    <g transform="matrix(1.15743,0,0,2.34882,145.921,-301.609)">
        <path d="M91.91,128.409L14.929,128.409L14.929,166.343L91.91,166.343L91.91,128.409ZM88.454,130.112L88.454,164.64C88.454,164.64 18.385,164.64 18.385,164.64C18.385,164.64 18.385,130.112 18.385,130.112L88.454,130.112Z"/>
    </g>
    <g transform="matrix(1.15743,0,0,2.34882,145.921,-138.409)">
        <path d="M91.91,128.409L14.929,128.409L14.929,166.343L91.91,166.343L91.91,128.409ZM88.454,130.112L88.454,164.64C88.454,164.64 18.385,164.64 18.385,164.64C18.385,164.64 18.385,130.112 18.385,130.112L88.454,130.112Z"/>
    </g>
    <g transform="matrix(1.15743,0,0,2.34882,-17.2791,-138.409)">
        <path d="M91.91,128.409L14.929,128.409L14.929,166.343L91.91,166.343L91.91,128.409ZM88.454,130.112L88.454,164.64C88.454,164.64 18.385,164.64 18.385,164.64C18.385,164.64 18.385,130.112 18.385,130.112L88.454,130.112Z"/>
    </g>
    <g transform="matrix(0.740652,0,0,0.740919,15.0015,-686.346)">
        <path d="M200.092,926.344L200.092,931.461L100.045,931.461L100.045,926.344L200.092,926.344ZM151.855,960.369C149.934,965.601 151.633,971.457 154.781,975.987L155.553,975.215C155.609,975.161 155.668,975.106 155.727,975.053C152.375,969.051 158.883,965.573 161.315,958.885C162.148,956.819 161.234,954.735 159.271,954.23C155.845,953.35 152.881,957.577 151.855,960.369ZM160.541,976.018C161.693,977.166 161.691,979.046 160.541,980.196L143.804,996.897C142.653,998.045 140.77,998.045 139.619,996.897C138.469,995.748 138.469,993.869 139.619,992.721L156.355,976.018C157.508,974.869 159.39,974.869 160.541,976.018ZM160.572,981.768C165.111,984.909 170.98,986.604 176.223,984.688C179.021,983.663 183.256,980.705 182.375,977.286C181.869,975.328 179.78,974.413 177.709,975.244C171.009,977.672 167.522,984.166 161.51,980.823C161.456,980.882 161.401,980.94 161.346,980.997L160.572,981.768ZM151.935,990.388C161.719,1001.26 174.52,1020.02 184.017,1025.25C188.203,1027.55 190.6,1028.44 191.355,1027.67C192.119,1026.92 191.232,1024.53 188.934,1020.35C183.688,1010.87 164.891,998.096 153.993,988.333L151.935,990.388ZM148.201,982.553C138.418,971.678 125.616,952.919 116.119,947.685C111.933,945.39 109.536,944.504 108.781,945.266C108.016,946.022 108.904,948.413 111.203,952.59C116.449,962.069 135.246,974.844 146.144,984.607L148.201,982.553ZM123.914,988.252C129.155,986.335 135.025,988.032 139.563,991.172L138.815,991.919C138.752,991.985 138.688,992.051 138.629,992.118C132.615,988.772 129.128,995.267 122.427,997.694C120.355,998.527 118.268,997.613 117.762,995.655C116.881,992.235 121.114,989.276 123.914,988.252ZM145.355,996.953C148.504,1001.48 150.203,1007.34 148.281,1012.57C147.256,1015.36 144.291,1019.59 140.865,1018.71C138.902,1018.21 137.986,1016.12 138.82,1014.06C141.253,1007.37 147.762,1003.89 144.408,997.885C144.477,997.827 144.543,997.764 144.607,997.7L145.355,996.953ZM168.995,1017.01C170.154,1020.52 170.213,1027.79 164.762,1028.79C162.503,1029.21 160.629,1027.75 160.576,1025.54C160.353,1021.97 163.559,1017.15 158.217,1006.48C155.902,1001.91 152.746,997.396 149.058,993.26L150.296,992.022C159.398,1001.56 167.128,1011.23 168.995,1017.01ZM143.271,987.473C139.181,983.828 134.719,980.708 130.187,978.424C119.379,972.973 114.516,976.207 110.923,975.983C108.703,975.931 107.24,974.061 107.658,971.806C108.664,966.367 115.953,966.424 119.463,967.582C126.822,970.055 135.905,977.695 144.552,986.195L143.271,987.473ZM119.524,977.86C127.979,977.079 135.633,983.141 141.756,988.986L140.701,990.037C132.523,983.541 126.924,986.26 115.562,987.271C113.369,987.547 111.654,986.01 111.732,983.838C111.869,980.043 116.589,978.13 119.524,977.86ZM147.549,994.764C153.395,1000.86 159.479,1008.5 158.695,1016.95C158.425,1019.88 156.507,1024.59 152.705,1024.73C150.528,1024.81 148.988,1023.09 149.266,1020.91C150.268,1009.67 153.087,1004 146.506,995.806L147.549,994.764ZM180.673,1005.36C184.183,1006.52 191.472,1006.57 192.479,1001.13C192.896,998.879 191.434,997.01 189.213,996.957C185.641,996.733 180.81,999.934 170.122,994.602C165.541,992.293 161.016,989.143 156.871,985.461L155.633,986.698C165.189,995.781 174.881,1003.5 180.673,1005.36ZM151.074,979.687C147.422,975.605 144.294,971.153 142.006,966.629C136.543,955.843 139.785,950.989 139.559,947.405C139.508,945.188 137.634,943.73 135.375,944.147C129.923,945.151 129.981,952.425 131.142,955.926C133.619,963.271 141.274,972.336 149.793,980.965L151.074,979.687ZM141.44,955.99C140.657,964.426 146.731,972.065 152.589,978.174L153.643,977.122C147.134,968.961 149.859,963.373 150.871,952.034C151.148,949.845 149.607,948.134 147.431,948.211C143.629,948.349 141.712,953.06 141.44,955.99ZM100.045,1018.2L100.045,955.551C101.611,958.66 102.533,962.325 102.926,966.246C103.982,976.799 101.496,979.203 108.523,987.463C100.05,994.643 98.371,1002.61 102.807,1013.88C105.143,1019.81 109.41,1023.28 116.125,1023.28C121.432,1023.28 125.733,1018.98 125.733,1013.69C125.733,1009.23 122.684,1005.48 118.553,1004.41C118.529,1006.91 116.484,1008.94 113.967,1008.94C111.434,1008.94 109.438,1006.89 109.381,1004.36C109.314,1001.41 111.514,999.862 113.896,999.492C122.211,998.2 130.052,1005.44 130.052,1013.69C130.052,1021.36 123.815,1027.59 116.125,1027.59C108.246,1027.59 103.178,1024.09 100.045,1018.2ZM200.092,955.551L200.092,1018.2C199.631,1017.33 199.212,1016.42 198.832,1015.45C194.03,1003.25 200.465,996.539 191.563,986.078C199.385,979.45 199.749,977.409 198.674,966.675C197.787,957.805 194,950.265 184.01,950.265C178.704,950.265 174.402,954.559 174.402,959.854C174.402,964.313 177.453,968.062 181.584,969.134C181.606,966.626 183.651,964.6 186.17,964.6C188.703,964.6 190.83,966.651 190.756,969.176C190.664,972.255 188.851,973.635 186.487,973.96C182.938,974.45 179.006,973.076 176.789,971.741C172.764,969.313 170.084,964.891 170.084,959.854C170.084,952.18 176.322,945.955 184.01,945.955C192.078,945.955 197.19,949.796 200.092,955.551ZM158.38,983.955C164.484,989.789 172.142,995.862 180.611,995.08C183.547,994.809 188.268,992.897 188.404,989.102C188.482,986.93 186.768,985.391 184.574,985.668C173.32,986.669 167.633,989.484 159.424,982.914L158.38,983.955ZM200.092,1031.24L200.092,1036.36L100.045,1036.36L100.045,1031.24L200.092,1031.24ZM200.092,1041.48L200.092,1046.6L100.045,1046.6L100.045,1041.48L200.092,1041.48ZM200.092,936.58L200.092,941.698L100.045,941.698L100.045,936.58L200.092,936.58Z"/>
    </g>
    <g transform="matrix(0.740652,0,0,-0.740919,15.0015,938.646)">
        <path d="M200.092,926.344L200.092,931.461L100.045,931.461L100.045,926.344L200.092,926.344ZM151.855,960.369C149.934,965.601 151.633,971.457 154.781,975.987L155.553,975.215C155.609,975.161 155.668,975.106 155.727,975.053C152.375,969.051 158.883,965.573 161.315,958.885C162.148,956.819 161.234,954.735 159.271,954.23C155.845,953.35 152.881,957.577 151.855,960.369ZM160.541,976.018C161.693,977.166 161.691,979.046 160.541,980.196L143.804,996.897C142.653,998.045 140.77,998.045 139.619,996.897C138.469,995.748 138.469,993.869 139.619,992.721L156.355,976.018C157.508,974.869 159.39,974.869 160.541,976.018ZM160.572,981.768C165.111,984.909 170.98,986.604 176.223,984.688C179.021,983.663 183.256,980.705 182.375,977.286C181.869,975.328 179.78,974.413 177.709,975.244C171.009,977.672 167.522,984.166 161.51,980.823C161.456,980.882 161.401,980.94 161.346,980.997L160.572,981.768ZM151.935,990.388C161.719,1001.26 174.52,1020.02 184.017,1025.25C188.203,1027.55 190.6,1028.44 191.355,1027.67C192.119,1026.92 191.232,1024.53 188.934,1020.35C183.688,1010.87 164.891,998.096 153.993,988.333L151.935,990.388ZM148.201,982.553C138.418,971.678 125.616,952.919 116.119,947.685C111.933,945.39 109.536,944.504 108.781,945.266C108.016,946.022 108.904,948.413 111.203,952.59C116.449,962.069 135.246,974.844 146.144,984.607L148.201,982.553ZM123.914,988.252C129.155,986.335 135.025,988.032 139.563,991.172L138.815,991.919C138.752,991.985 138.688,992.051 138.629,992.118C132.615,988.772 129.128,995.267 122.427,997.694C120.355,998.527 118.268,997.613 117.762,995.655C116.881,992.235 121.114,989.276 123.914,988.252ZM145.355,996.953C148.504,1001.48 150.203,1007.34 148.281,1012.57C147.256,1015.36 144.291,1019.59 140.865,1018.71C138.902,1018.21 137.986,1016.12 138.82,1014.06C141.253,1007.37 147.762,1003.89 144.408,997.885C144.477,997.827 144.543,997.764 144.607,997.7L145.355,996.953ZM168.995,1017.01C170.154,1020.52 170.213,1027.79 164.762,1028.79C162.503,1029.21 160.629,1027.75 160.576,1025.54C160.353,1021.97 163.559,1017.15 158.217,1006.48C155.902,1001.91 152.746,997.396 149.058,993.26L150.296,992.022C159.398,1001.56 167.128,1011.23 168.995,1017.01ZM143.271,987.473C139.181,983.828 134.719,980.708 130.187,978.424C119.379,972.973 114.516,976.207 110.923,975.983C108.703,975.931 107.24,974.061 107.658,971.806C108.664,966.367 115.953,966.424 119.463,967.582C126.822,970.055 135.905,977.695 144.552,986.195L143.271,987.473ZM119.524,977.86C127.979,977.079 135.633,983.141 141.756,988.986L140.701,990.037C132.523,983.541 126.924,986.26 115.562,987.271C113.369,987.547 111.654,986.01 111.732,983.838C111.869,980.043 116.589,978.13 119.524,977.86ZM147.549,994.764C153.395,1000.86 159.479,1008.5 158.695,1016.95C158.425,1019.88 156.507,1024.59 152.705,1024.73C150.528,1024.81 148.988,1023.09 149.266,1020.91C150.268,1009.67 153.087,1004 146.506,995.806L147.549,994.764ZM180.673,1005.36C184.183,1006.52 191.472,1006.57 192.479,1001.13C192.896,998.879 191.434,997.01 189.213,996.957C185.641,996.733 180.81,999.934 170.122,994.602C165.541,992.293 161.016,989.143 156.871,985.461L155.633,986.698C165.189,995.781 174.881,1003.5 180.673,1005.36ZM151.074,979.687C147.422,975.605 144.294,971.153 142.006,966.629C136.543,955.843 139.785,950.989 139.559,947.405C139.508,945.188 137.634,943.73 135.375,944.147C129.923,945.151 129.981,952.425 131.142,955.926C133.619,963.271 141.274,972.336 149.793,980.965L151.074,979.687ZM141.44,955.99C140.657,964.426 146.731,972.065 152.589,978.174L153.643,977.122C147.134,968.961 149.859,963.373 150.871,952.034C151.148,949.845 149.607,948.134 147.431,948.211C143.629,948.349 141.712,953.06 141.44,955.99ZM100.045,1018.2L100.045,955.551C101.611,958.66 102.533,962.325 102.926,966.246C103.982,976.799 101.496,979.203 108.523,987.463C100.05,994.643 98.371,1002.61 102.807,1013.88C105.143,1019.81 109.41,1023.28 116.125,1023.28C121.432,1023.28 125.733,1018.98 125.733,1013.69C125.733,1009.23 122.684,1005.48 118.553,1004.41C118.529,1006.91 116.484,1008.94 113.967,1008.94C111.434,1008.94 109.438,1006.89 109.381,1004.36C109.314,1001.41 111.514,999.862 113.896,999.492C122.211,998.2 130.052,1005.44 130.052,1013.69C130.052,1021.36 123.815,1027.59 116.125,1027.59C108.246,1027.59 103.178,1024.09 100.045,1018.2ZM200.092,955.551L200.092,1018.2C199.631,1017.33 199.212,1016.42 198.832,1015.45C194.03,1003.25 200.465,996.539 191.563,986.078C199.385,979.45 199.749,977.409 198.674,966.675C197.787,957.805 194,950.265 184.01,950.265C178.704,950.265 174.402,954.559 174.402,959.854C174.402,964.313 177.453,968.062 181.584,969.134C181.606,966.626 183.651,964.6 186.17,964.6C188.703,964.6 190.83,966.651 190.756,969.176C190.664,972.255 188.851,973.635 186.487,973.96C182.938,974.45 179.006,973.076 176.789,971.741C172.764,969.313 170.084,964.891 170.084,959.854C170.084,952.18 176.322,945.955 184.01,945.955C192.078,945.955 197.19,949.796 200.092,955.551ZM158.38,983.955C164.484,989.789 172.142,995.862 180.611,995.08C183.547,994.809 188.268,992.897 188.404,989.102C188.482,986.93 186.768,985.391 184.574,985.668C173.32,986.669 167.633,989.484 159.424,982.914L158.38,983.955ZM200.092,1031.24L200.092,1036.36L100.045,1036.36L100.045,1031.24L200.092,1031.24ZM200.092,1041.48L200.092,1046.6L100.045,1046.6L100.045,1041.48L200.092,1041.48ZM200.092,936.58L200.092,941.698L100.045,941.698L100.045,936.58L200.092,936.58Z"/>
    </g>
    <g transform="matrix(4.53518e-17,-0.740652,0.740919,4.53682e-17,-686.346,237.299)">
        <path d="M200.092,926.344L200.092,931.461L100.045,931.461L100.045,926.344L200.092,926.344ZM151.855,960.369C149.934,965.601 151.633,971.457 154.781,975.987L155.553,975.215C155.609,975.161 155.668,975.106 155.727,975.053C152.375,969.051 158.883,965.573 161.315,958.885C162.148,956.819 161.234,954.735 159.271,954.23C155.845,953.35 152.881,957.577 151.855,960.369ZM160.541,976.018C161.693,977.166 161.691,979.046 160.541,980.196L143.804,996.897C142.653,998.045 140.77,998.045 139.619,996.897C138.469,995.748 138.469,993.869 139.619,992.721L156.355,976.018C157.508,974.869 159.39,974.869 160.541,976.018ZM160.572,981.768C165.111,984.909 170.98,986.604 176.223,984.688C179.021,983.663 183.256,980.705 182.375,977.286C181.869,975.328 179.78,974.413 177.709,975.244C171.009,977.672 167.522,984.166 161.51,980.823C161.456,980.882 161.401,980.94 161.346,980.997L160.572,981.768ZM151.935,990.388C161.719,1001.26 174.52,1020.02 184.017,1025.25C188.203,1027.55 190.6,1028.44 191.355,1027.67C192.119,1026.92 191.232,1024.53 188.934,1020.35C183.688,1010.87 164.891,998.096 153.993,988.333L151.935,990.388ZM148.201,982.553C138.418,971.678 125.616,952.919 116.119,947.685C111.933,945.39 109.536,944.504 108.781,945.266C108.016,946.022 108.904,948.413 111.203,952.59C116.449,962.069 135.246,974.844 146.144,984.607L148.201,982.553ZM123.914,988.252C129.155,986.335 135.025,988.032 139.563,991.172L138.815,991.919C138.752,991.985 138.688,992.051 138.629,992.118C132.615,988.772 129.128,995.267 122.427,997.694C120.355,998.527 118.268,997.613 117.762,995.655C116.881,992.235 121.114,989.276 123.914,988.252ZM145.355,996.953C148.504,1001.48 150.203,1007.34 148.281,1012.57C147.256,1015.36 144.291,1019.59 140.865,1018.71C138.902,1018.21 137.986,1016.12 138.82,1014.06C141.253,1007.37 147.762,1003.89 144.408,997.885C144.477,997.827 144.543,997.764 144.607,997.7L145.355,996.953ZM168.995,1017.01C170.154,1020.52 170.213,1027.79 164.762,1028.79C162.503,1029.21 160.629,1027.75 160.576,1025.54C160.353,1021.97 163.559,1017.15 158.217,1006.48C155.902,1001.91 152.746,997.396 149.058,993.26L150.296,992.022C159.398,1001.56 167.128,1011.23 168.995,1017.01ZM143.271,987.473C139.181,983.828 134.719,980.708 130.187,978.424C119.379,972.973 114.516,976.207 110.923,975.983C108.703,975.931 107.24,974.061 107.658,971.806C108.664,966.367 115.953,966.424 119.463,967.582C126.822,970.055 135.905,977.695 144.552,986.195L143.271,987.473ZM119.524,977.86C127.979,977.079 135.633,983.141 141.756,988.986L140.701,990.037C132.523,983.541 126.924,986.26 115.562,987.271C113.369,987.547 111.654,986.01 111.732,983.838C111.869,980.043 116.589,978.13 119.524,977.86ZM147.549,994.764C153.395,1000.86 159.479,1008.5 158.695,1016.95C158.425,1019.88 156.507,1024.59 152.705,1024.73C150.528,1024.81 148.988,1023.09 149.266,1020.91C150.268,1009.67 153.087,1004 146.506,995.806L147.549,994.764ZM180.673,1005.36C184.183,1006.52 191.472,1006.57 192.479,1001.13C192.896,998.879 191.434,997.01 189.213,996.957C185.641,996.733 180.81,999.934 170.122,994.602C165.541,992.293 161.016,989.143 156.871,985.461L155.633,986.698C165.189,995.781 174.881,1003.5 180.673,1005.36ZM151.074,979.687C147.422,975.605 144.294,971.153 142.006,966.629C136.543,955.843 139.785,950.989 139.559,947.405C139.508,945.188 137.634,943.73 135.375,944.147C129.923,945.151 129.981,952.425 131.142,955.926C133.619,963.271 141.274,972.336 149.793,980.965L151.074,979.687ZM141.44,955.99C140.657,964.426 146.731,972.065 152.589,978.174L153.643,977.122C147.134,968.961 149.859,963.373 150.871,952.034C151.148,949.845 149.607,948.134 147.431,948.211C143.629,948.349 141.712,953.06 141.44,955.99ZM100.045,1018.2L100.045,955.551C101.611,958.66 102.533,962.325 102.926,966.246C103.982,976.799 101.496,979.203 108.523,987.463C100.05,994.643 98.371,1002.61 102.807,1013.88C105.143,1019.81 109.41,1023.28 116.125,1023.28C121.432,1023.28 125.733,1018.98 125.733,1013.69C125.733,1009.23 122.684,1005.48 118.553,1004.41C118.529,1006.91 116.484,1008.94 113.967,1008.94C111.434,1008.94 109.438,1006.89 109.381,1004.36C109.314,1001.41 111.514,999.862 113.896,999.492C122.211,998.2 130.052,1005.44 130.052,1013.69C130.052,1021.36 123.815,1027.59 116.125,1027.59C108.246,1027.59 103.178,1024.09 100.045,1018.2ZM200.092,955.551L200.092,1018.2C199.631,1017.33 199.212,1016.42 198.832,1015.45C194.03,1003.25 200.465,996.539 191.563,986.078C199.385,979.45 199.749,977.409 198.674,966.675C197.787,957.805 194,950.265 184.01,950.265C178.704,950.265 174.402,954.559 174.402,959.854C174.402,964.313 177.453,968.062 181.584,969.134C181.606,966.626 183.651,964.6 186.17,964.6C188.703,964.6 190.83,966.651 190.756,969.176C190.664,972.255 188.851,973.635 186.487,973.96C182.938,974.45 179.006,973.076 176.789,971.741C172.764,969.313 170.084,964.891 170.084,959.854C170.084,952.18 176.322,945.955 184.01,945.955C192.078,945.955 197.19,949.796 200.092,955.551ZM158.38,983.955C164.484,989.789 172.142,995.862 180.611,995.08C183.547,994.809 188.268,992.897 188.404,989.102C188.482,986.93 186.768,985.391 184.574,985.668C173.32,986.669 167.633,989.484 159.424,982.914L158.38,983.955ZM200.092,1031.24L200.092,1036.36L100.045,1036.36L100.045,1031.24L200.092,1031.24ZM200.092,1041.48L200.092,1046.6L100.045,1046.6L100.045,1041.48L200.092,1041.48ZM200.092,936.58L200.092,941.698L100.045,941.698L100.045,936.58L200.092,936.58Z"/>
    </g>
    <g transform="matrix(-4.53518e-17,-0.740652,-0.740919,4.53682e-17,938.646,237.299)">
        <path d="M200.092,926.344L200.092,931.461L100.045,931.461L100.045,926.344L200.092,926.344ZM151.855,960.369C149.934,965.601 151.633,971.457 154.781,975.987L155.553,975.215C155.609,975.161 155.668,975.106 155.727,975.053C152.375,969.051 158.883,965.573 161.315,958.885C162.148,956.819 161.234,954.735 159.271,954.23C155.845,953.35 152.881,957.577 151.855,960.369ZM160.541,976.018C161.693,977.166 161.691,979.046 160.541,980.196L143.804,996.897C142.653,998.045 140.77,998.045 139.619,996.897C138.469,995.748 138.469,993.869 139.619,992.721L156.355,976.018C157.508,974.869 159.39,974.869 160.541,976.018ZM160.572,981.768C165.111,984.909 170.98,986.604 176.223,984.688C179.021,983.663 183.256,980.705 182.375,977.286C181.869,975.328 179.78,974.413 177.709,975.244C171.009,977.672 167.522,984.166 161.51,980.823C161.456,980.882 161.401,980.94 161.346,980.997L160.572,981.768ZM151.935,990.388C161.719,1001.26 174.52,1020.02 184.017,1025.25C188.203,1027.55 190.6,1028.44 191.355,1027.67C192.119,1026.92 191.232,1024.53 188.934,1020.35C183.688,1010.87 164.891,998.096 153.993,988.333L151.935,990.388ZM148.201,982.553C138.418,971.678 125.616,952.919 116.119,947.685C111.933,945.39 109.536,944.504 108.781,945.266C108.016,946.022 108.904,948.413 111.203,952.59C116.449,962.069 135.246,974.844 146.144,984.607L148.201,982.553ZM123.914,988.252C129.155,986.335 135.025,988.032 139.563,991.172L138.815,991.919C138.752,991.985 138.688,992.051 138.629,992.118C132.615,988.772 129.128,995.267 122.427,997.694C120.355,998.527 118.268,997.613 117.762,995.655C116.881,992.235 121.114,989.276 123.914,988.252ZM145.355,996.953C148.504,1001.48 150.203,1007.34 148.281,1012.57C147.256,1015.36 144.291,1019.59 140.865,1018.71C138.902,1018.21 137.986,1016.12 138.82,1014.06C141.253,1007.37 147.762,1003.89 144.408,997.885C144.477,997.827 144.543,997.764 144.607,997.7L145.355,996.953ZM168.995,1017.01C170.154,1020.52 170.213,1027.79 164.762,1028.79C162.503,1029.21 160.629,1027.75 160.576,1025.54C160.353,1021.97 163.559,1017.15 158.217,1006.48C155.902,1001.91 152.746,997.396 149.058,993.26L150.296,992.022C159.398,1001.56 167.128,1011.23 168.995,1017.01ZM143.271,987.473C139.181,983.828 134.719,980.708 130.187,978.424C119.379,972.973 114.516,976.207 110.923,975.983C108.703,975.931 107.24,974.061 107.658,971.806C108.664,966.367 115.953,966.424 119.463,967.582C126.822,970.055 135.905,977.695 144.552,986.195L143.271,987.473ZM119.524,977.86C127.979,977.079 135.633,983.141 141.756,988.986L140.701,990.037C132.523,983.541 126.924,986.26 115.562,987.271C113.369,987.547 111.654,986.01 111.732,983.838C111.869,980.043 116.589,978.13 119.524,977.86ZM147.549,994.764C153.395,1000.86 159.479,1008.5 158.695,1016.95C158.425,1019.88 156.507,1024.59 152.705,1024.73C150.528,1024.81 148.988,1023.09 149.266,1020.91C150.268,1009.67 153.087,1004 146.506,995.806L147.549,994.764ZM180.673,1005.36C184.183,1006.52 191.472,1006.57 192.479,1001.13C192.896,998.879 191.434,997.01 189.213,996.957C185.641,996.733 180.81,999.934 170.122,994.602C165.541,992.293 161.016,989.143 156.871,985.461L155.633,986.698C165.189,995.781 174.881,1003.5 180.673,1005.36ZM151.074,979.687C147.422,975.605 144.294,971.153 142.006,966.629C136.543,955.843 139.785,950.989 139.559,947.405C139.508,945.188 137.634,943.73 135.375,944.147C129.923,945.151 129.981,952.425 131.142,955.926C133.619,963.271 141.274,972.336 149.793,980.965L151.074,979.687ZM141.44,955.99C140.657,964.426 146.731,972.065 152.589,978.174L153.643,977.122C147.134,968.961 149.859,963.373 150.871,952.034C151.148,949.845 149.607,948.134 147.431,948.211C143.629,948.349 141.712,953.06 141.44,955.99ZM100.045,1018.2L100.045,955.551C101.611,958.66 102.533,962.325 102.926,966.246C103.982,976.799 101.496,979.203 108.523,987.463C100.05,994.643 98.371,1002.61 102.807,1013.88C105.143,1019.81 109.41,1023.28 116.125,1023.28C121.432,1023.28 125.733,1018.98 125.733,1013.69C125.733,1009.23 122.684,1005.48 118.553,1004.41C118.529,1006.91 116.484,1008.94 113.967,1008.94C111.434,1008.94 109.438,1006.89 109.381,1004.36C109.314,1001.41 111.514,999.862 113.896,999.492C122.211,998.2 130.052,1005.44 130.052,1013.69C130.052,1021.36 123.815,1027.59 116.125,1027.59C108.246,1027.59 103.178,1024.09 100.045,1018.2ZM200.092,955.551L200.092,1018.2C199.631,1017.33 199.212,1016.42 198.832,1015.45C194.03,1003.25 200.465,996.539 191.563,986.078C199.385,979.45 199.749,977.409 198.674,966.675C197.787,957.805 194,950.265 184.01,950.265C178.704,950.265 174.402,954.559 174.402,959.854C174.402,964.313 177.453,968.062 181.584,969.134C181.606,966.626 183.651,964.6 186.17,964.6C188.703,964.6 190.83,966.651 190.756,969.176C190.664,972.255 188.851,973.635 186.487,973.96C182.938,974.45 179.006,973.076 176.789,971.741C172.764,969.313 170.084,964.891 170.084,959.854C170.084,952.18 176.322,945.955 184.01,945.955C192.078,945.955 197.19,949.796 200.092,955.551ZM158.38,983.955C164.484,989.789 172.142,995.862 180.611,995.08C183.547,994.809 188.268,992.897 188.404,989.102C188.482,986.93 186.768,985.391 184.574,985.668C173.32,986.669 167.633,989.484 159.424,982.914L158.38,983.955ZM200.092,1031.24L200.092,1036.36L100.045,1036.36L100.045,1031.24L200.092,1031.24ZM200.092,1041.48L200.092,1046.6L100.045,1046.6L100.045,1041.48L200.092,1041.48ZM200.092,936.58L200.092,941.698L100.045,941.698L100.045,936.58L200.092,936.58Z"/>
    </g>
</svg>
