<?xml version="1.0" encoding="UTF-8" standalone="no"?>
<!DOCTYPE svg PUBLIC "-//W3C//DTD SVG 1.1//EN" "http://www.w3.org/Graphics/SVG/1.1/DTD/svg11.dtd">
<svg width="100%" height="100%" viewBox="0 0 333 313" version="1.1" xmlns="http://www.w3.org/2000/svg" xmlns:xlink="http://www.w3.org/1999/xlink" xml:space="preserve" xmlns:serif="http://www.serif.com/" style="fill-rule:evenodd;clip-rule:evenodd;stroke-miterlimit:1.5;">
    <g transform="matrix(0.975529,0,0,0.975529,11.0852,-275.604)">
        <path d="M37.28,304.248C37.001,304.751 36.762,305.268 36.568,305.799C34.704,306.789 32.902,307.793 30.709,307.104C23.523,304.85 15.171,300.635 10.938,310.193C9.287,313.924 9.579,318.522 12.787,321.452C9.858,325.791 10.864,331.504 14.773,334.782C15.459,334.106 16.203,333.486 16.99,332.93C17.212,323.424 25.562,316.349 34.748,316.305C35.844,312.166 37.531,307.901 39.744,304.248L37.28,304.248ZM37.28,383.282C37.001,382.782 36.762,382.264 36.568,381.733C34.704,380.743 32.902,379.739 30.709,380.428C23.523,382.683 15.171,386.897 10.938,377.339C9.287,373.608 9.579,369.01 12.787,366.08C9.858,361.741 10.864,356.028 14.773,352.75C15.459,353.426 16.203,354.047 16.99,354.602C17.212,364.108 25.562,371.182 34.748,371.227C35.844,375.365 37.531,379.63 39.744,383.282L37.28,383.282ZM69.016,304.248C69.295,304.751 69.535,305.268 69.73,305.799C71.592,306.789 73.395,307.793 75.589,307.104C82.773,304.85 91.127,300.635 95.358,310.193C97.011,313.924 96.718,318.522 93.51,321.452C96.438,325.791 95.433,331.504 91.525,334.782C90.837,334.106 90.095,333.486 89.307,332.93C89.084,323.424 80.734,316.349 71.549,316.305C70.453,312.166 68.765,307.901 66.552,304.248L69.016,304.248ZM69.016,383.282C69.295,382.782 69.535,382.264 69.73,381.733C71.592,380.743 73.395,379.739 75.589,380.428C82.773,382.683 91.127,386.897 95.358,377.339C97.011,373.608 96.718,369.01 93.51,366.08C96.438,361.741 95.433,356.028 91.525,352.75C90.837,353.426 90.095,354.047 89.307,354.602C89.084,364.108 80.734,371.182 71.549,371.227C70.453,375.365 68.765,379.63 66.552,383.282L69.016,383.282ZM56.098,298.099L102.078,298.099L102.078,389.434L56.098,389.434L56.098,385.008C60.534,383.222 62.82,377.493 64.416,373.323L64.422,373.307C65.567,370.291 66.302,367.289 66.562,364.186C70.46,365.588 74.722,365.473 78.539,362.846C82.537,360.096 84.052,355.323 82.658,351.118C84.21,350.622 85.678,349.797 86.985,348.581C88.476,347.196 89.454,345.526 89.937,343.766C89.454,342.006 88.476,340.336 86.985,338.951C85.678,337.735 84.21,336.91 82.658,336.414C84.052,332.207 82.537,327.437 78.539,324.686C74.722,322.059 70.46,321.944 66.562,323.346C66.302,320.242 65.567,317.24 64.422,314.226L64.416,314.207C62.82,310.039 60.534,304.31 56.098,302.523L56.098,298.099ZM64.226,355.609C61.927,354.694 57.252,352.348 55.867,347.352L59.313,347.352C62.066,350.224 67.138,348.75 70.294,350.018C72.27,350.739 73.376,352.684 72.764,354.362C71.697,357.291 66.845,356.651 64.226,355.609ZM64.226,331.924C61.927,332.838 57.252,335.184 55.867,340.18L59.313,340.18C62.066,337.308 67.138,338.782 70.294,337.514C72.27,336.794 73.376,334.848 72.764,333.17C71.697,330.239 66.845,330.881 64.226,331.924ZM42.072,331.924C44.369,332.838 49.043,335.184 50.429,340.18L46.983,340.18C44.232,337.308 39.158,338.782 36.003,337.514C34.026,336.794 32.92,334.848 33.533,333.17C34.601,330.239 39.451,330.881 42.072,331.924ZM51.835,347.352C50.287,358.219 47.041,361.654 49.974,368.703C51.193,371.608 52.167,373.078 53.148,373.076C54.129,373.078 55.105,371.608 56.324,368.703C59.257,361.654 56.008,358.219 54.461,347.352L51.835,347.352ZM54.461,340.18C56.008,329.314 59.257,325.877 56.324,318.827C55.105,315.924 54.129,314.453 53.148,314.456C52.167,314.453 51.193,315.924 49.974,318.827C47.041,325.877 50.287,329.314 51.835,340.18L54.461,340.18ZM46.597,341.42L59.701,341.42C60.99,341.42 62.046,342.475 62.046,343.766C62.046,345.055 60.99,346.112 59.701,346.112L46.597,346.112C45.306,346.112 44.252,345.055 44.252,343.766C44.252,342.475 45.306,341.42 46.597,341.42ZM42.072,355.609C44.369,354.694 49.043,352.348 50.429,347.352L46.983,347.352C44.232,350.224 39.158,348.75 36.003,350.018C34.026,350.739 32.92,352.684 33.533,354.362C34.601,357.291 39.451,356.651 42.072,355.609ZM22.209,343.766C22.606,344.871 23.273,345.85 24.14,346.656C25.048,347.501 26.101,348.121 27.285,348.5L29.164,349.1L28.542,350.971C27.506,354.093 28.812,357.424 31.49,359.267C34.248,361.164 37.372,361.351 40.462,360.239L42.854,359.377L43.066,361.911C43.287,364.547 43.925,367.088 44.865,369.563L44.868,369.571C46.076,372.723 49.049,378.83 53.148,378.83C57.248,378.83 60.221,372.723 61.427,369.577L61.433,369.56C62.371,367.088 63.011,364.547 63.232,361.911L63.443,359.377L65.834,360.239C68.924,361.351 72.05,361.164 74.807,359.267C77.486,357.424 78.791,354.093 77.754,350.971L77.134,349.1L79.013,348.5C80.195,348.121 81.248,347.501 82.157,346.656C83.023,345.85 83.69,344.871 84.087,343.766C83.69,342.661 83.023,341.682 82.157,340.875C81.248,340.031 80.195,339.409 79.013,339.032L77.134,338.433L77.754,336.561C78.791,333.439 77.486,330.108 74.807,328.266C72.05,326.368 68.924,326.182 65.834,327.293L63.443,328.153L63.232,325.619C63.011,322.985 62.371,320.442 61.433,317.97L61.429,317.961C60.221,314.81 57.248,308.7 53.148,308.7C49.049,308.7 46.076,314.81 44.87,317.955L44.865,317.972C43.925,320.442 43.287,322.985 43.066,325.619L42.854,328.153L40.462,327.293C37.372,326.182 34.248,326.368 31.49,328.266C28.812,330.108 27.506,333.439 28.542,336.561L29.164,338.433L27.285,339.032C26.101,339.409 25.048,340.031 24.14,340.875C23.273,341.682 22.606,342.661 22.209,343.766ZM50.199,298.099L4.218,298.099L4.218,389.434L50.199,389.434L50.199,385.008C45.762,383.222 43.478,377.493 41.88,373.323L41.874,373.307C40.729,370.291 39.994,367.289 39.735,364.186C35.835,365.588 31.576,365.473 27.757,362.846C23.759,360.096 22.244,355.323 23.638,351.118C22.085,350.622 20.618,349.797 19.312,348.581C17.822,347.196 16.843,345.526 16.361,343.766C16.843,342.006 17.822,340.336 19.312,338.951C20.618,337.735 22.085,336.91 23.638,336.414C22.244,332.207 23.759,327.437 27.757,324.686C31.576,322.059 35.835,321.944 39.735,323.346C39.994,320.242 40.729,317.24 41.874,314.226L41.88,314.207C43.478,310.039 45.762,304.31 50.199,302.523L50.199,298.099Z"/>
    </g>
    <g transform="matrix(0.975529,0,0,0.975529,11.0852,-178.904)">
        <path d="M37.28,304.248C37.001,304.751 36.762,305.268 36.568,305.799C34.704,306.789 32.902,307.793 30.709,307.104C23.523,304.85 15.171,300.635 10.938,310.193C9.287,313.924 9.579,318.522 12.787,321.452C9.858,325.791 10.864,331.504 14.773,334.782C15.459,334.106 16.203,333.486 16.99,332.93C17.212,323.424 25.562,316.349 34.748,316.305C35.844,312.166 37.531,307.901 39.744,304.248L37.28,304.248ZM37.28,383.282C37.001,382.782 36.762,382.264 36.568,381.733C34.704,380.743 32.902,379.739 30.709,380.428C23.523,382.683 15.171,386.897 10.938,377.339C9.287,373.608 9.579,369.01 12.787,366.08C9.858,361.741 10.864,356.028 14.773,352.75C15.459,353.426 16.203,354.047 16.99,354.602C17.212,364.108 25.562,371.182 34.748,371.227C35.844,375.365 37.531,379.63 39.744,383.282L37.28,383.282ZM69.016,304.248C69.295,304.751 69.535,305.268 69.73,305.799C71.592,306.789 73.395,307.793 75.589,307.104C82.773,304.85 91.127,300.635 95.358,310.193C97.011,313.924 96.718,318.522 93.51,321.452C96.438,325.791 95.433,331.504 91.525,334.782C90.837,334.106 90.095,333.486 89.307,332.93C89.084,323.424 80.734,316.349 71.549,316.305C70.453,312.166 68.765,307.901 66.552,304.248L69.016,304.248ZM69.016,383.282C69.295,382.782 69.535,382.264 69.73,381.733C71.592,380.743 73.395,379.739 75.589,380.428C82.773,382.683 91.127,386.897 95.358,377.339C97.011,373.608 96.718,369.01 93.51,366.08C96.438,361.741 95.433,356.028 91.525,352.75C90.837,353.426 90.095,354.047 89.307,354.602C89.084,364.108 80.734,371.182 71.549,371.227C70.453,375.365 68.765,379.63 66.552,383.282L69.016,383.282ZM56.098,298.099L102.078,298.099L102.078,389.434L56.098,389.434L56.098,385.008C60.534,383.222 62.82,377.493 64.416,373.323L64.422,373.307C65.567,370.291 66.302,367.289 66.562,364.186C70.46,365.588 74.722,365.473 78.539,362.846C82.537,360.096 84.052,355.323 82.658,351.118C84.21,350.622 85.678,349.797 86.985,348.581C88.476,347.196 89.454,345.526 89.937,343.766C89.454,342.006 88.476,340.336 86.985,338.951C85.678,337.735 84.21,336.91 82.658,336.414C84.052,332.207 82.537,327.437 78.539,324.686C74.722,322.059 70.46,321.944 66.562,323.346C66.302,320.242 65.567,317.24 64.422,314.226L64.416,314.207C62.82,310.039 60.534,304.31 56.098,302.523L56.098,298.099ZM64.226,355.609C61.927,354.694 57.252,352.348 55.867,347.352L59.313,347.352C62.066,350.224 67.138,348.75 70.294,350.018C72.27,350.739 73.376,352.684 72.764,354.362C71.697,357.291 66.845,356.651 64.226,355.609ZM64.226,331.924C61.927,332.838 57.252,335.184 55.867,340.18L59.313,340.18C62.066,337.308 67.138,338.782 70.294,337.514C72.27,336.794 73.376,334.848 72.764,333.17C71.697,330.239 66.845,330.881 64.226,331.924ZM42.072,331.924C44.369,332.838 49.043,335.184 50.429,340.18L46.983,340.18C44.232,337.308 39.158,338.782 36.003,337.514C34.026,336.794 32.92,334.848 33.533,333.17C34.601,330.239 39.451,330.881 42.072,331.924ZM51.835,347.352C50.287,358.219 47.041,361.654 49.974,368.703C51.193,371.608 52.167,373.078 53.148,373.076C54.129,373.078 55.105,371.608 56.324,368.703C59.257,361.654 56.008,358.219 54.461,347.352L51.835,347.352ZM54.461,340.18C56.008,329.314 59.257,325.877 56.324,318.827C55.105,315.924 54.129,314.453 53.148,314.456C52.167,314.453 51.193,315.924 49.974,318.827C47.041,325.877 50.287,329.314 51.835,340.18L54.461,340.18ZM46.597,341.42L59.701,341.42C60.99,341.42 62.046,342.475 62.046,343.766C62.046,345.055 60.99,346.112 59.701,346.112L46.597,346.112C45.306,346.112 44.252,345.055 44.252,343.766C44.252,342.475 45.306,341.42 46.597,341.42ZM42.072,355.609C44.369,354.694 49.043,352.348 50.429,347.352L46.983,347.352C44.232,350.224 39.158,348.75 36.003,350.018C34.026,350.739 32.92,352.684 33.533,354.362C34.601,357.291 39.451,356.651 42.072,355.609ZM22.209,343.766C22.606,344.871 23.273,345.85 24.14,346.656C25.048,347.501 26.101,348.121 27.285,348.5L29.164,349.1L28.542,350.971C27.506,354.093 28.812,357.424 31.49,359.267C34.248,361.164 37.372,361.351 40.462,360.239L42.854,359.377L43.066,361.911C43.287,364.547 43.925,367.088 44.865,369.563L44.868,369.571C46.076,372.723 49.049,378.83 53.148,378.83C57.248,378.83 60.221,372.723 61.427,369.577L61.433,369.56C62.371,367.088 63.011,364.547 63.232,361.911L63.443,359.377L65.834,360.239C68.924,361.351 72.05,361.164 74.807,359.267C77.486,357.424 78.791,354.093 77.754,350.971L77.134,349.1L79.013,348.5C80.195,348.121 81.248,347.501 82.157,346.656C83.023,345.85 83.69,344.871 84.087,343.766C83.69,342.661 83.023,341.682 82.157,340.875C81.248,340.031 80.195,339.409 79.013,339.032L77.134,338.433L77.754,336.561C78.791,333.439 77.486,330.108 74.807,328.266C72.05,326.368 68.924,326.182 65.834,327.293L63.443,328.153L63.232,325.619C63.011,322.985 62.371,320.442 61.433,317.97L61.429,317.961C60.221,314.81 57.248,308.7 53.148,308.7C49.049,308.7 46.076,314.81 44.87,317.955L44.865,317.972C43.925,320.442 43.287,322.985 43.066,325.619L42.854,328.153L40.462,327.293C37.372,326.182 34.248,326.368 31.49,328.266C28.812,330.108 27.506,333.439 28.542,336.561L29.164,338.433L27.285,339.032C26.101,339.409 25.048,340.031 24.14,340.875C23.273,341.682 22.606,342.661 22.209,343.766ZM50.199,298.099L4.218,298.099L4.218,389.434L50.199,389.434L50.199,385.008C45.762,383.222 43.478,377.493 41.88,373.323L41.874,373.307C40.729,370.291 39.994,367.289 39.735,364.186C35.835,365.588 31.576,365.473 27.757,362.846C23.759,360.096 22.244,355.323 23.638,351.118C22.085,350.622 20.618,349.797 19.312,348.581C17.822,347.196 16.843,345.526 16.361,343.766C16.843,342.006 17.822,340.336 19.312,338.951C20.618,337.735 22.085,336.91 23.638,336.414C22.244,332.207 23.759,327.437 27.757,324.686C31.576,322.059 35.835,321.944 39.735,323.346C39.994,320.242 40.729,317.24 41.874,314.226L41.88,314.207C43.478,310.039 45.762,304.31 50.199,302.523L50.199,298.099Z"/>
    </g>
    <g transform="matrix(0.975529,0,0,0.975529,11.0852,-82.1043)">
        <path d="M37.28,304.248C37.001,304.751 36.762,305.268 36.568,305.799C34.704,306.789 32.902,307.793 30.709,307.104C23.523,304.85 15.171,300.635 10.938,310.193C9.287,313.924 9.579,318.522 12.787,321.452C9.858,325.791 10.864,331.504 14.773,334.782C15.459,334.106 16.203,333.486 16.99,332.93C17.212,323.424 25.562,316.349 34.748,316.305C35.844,312.166 37.531,307.901 39.744,304.248L37.28,304.248ZM37.28,383.282C37.001,382.782 36.762,382.264 36.568,381.733C34.704,380.743 32.902,379.739 30.709,380.428C23.523,382.683 15.171,386.897 10.938,377.339C9.287,373.608 9.579,369.01 12.787,366.08C9.858,361.741 10.864,356.028 14.773,352.75C15.459,353.426 16.203,354.047 16.99,354.602C17.212,364.108 25.562,371.182 34.748,371.227C35.844,375.365 37.531,379.63 39.744,383.282L37.28,383.282ZM69.016,304.248C69.295,304.751 69.535,305.268 69.73,305.799C71.592,306.789 73.395,307.793 75.589,307.104C82.773,304.85 91.127,300.635 95.358,310.193C97.011,313.924 96.718,318.522 93.51,321.452C96.438,325.791 95.433,331.504 91.525,334.782C90.837,334.106 90.095,333.486 89.307,332.93C89.084,323.424 80.734,316.349 71.549,316.305C70.453,312.166 68.765,307.901 66.552,304.248L69.016,304.248ZM69.016,383.282C69.295,382.782 69.535,382.264 69.73,381.733C71.592,380.743 73.395,379.739 75.589,380.428C82.773,382.683 91.127,386.897 95.358,377.339C97.011,373.608 96.718,369.01 93.51,366.08C96.438,361.741 95.433,356.028 91.525,352.75C90.837,353.426 90.095,354.047 89.307,354.602C89.084,364.108 80.734,371.182 71.549,371.227C70.453,375.365 68.765,379.63 66.552,383.282L69.016,383.282ZM56.098,298.099L102.078,298.099L102.078,389.434L56.098,389.434L56.098,385.008C60.534,383.222 62.82,377.493 64.416,373.323L64.422,373.307C65.567,370.291 66.302,367.289 66.562,364.186C70.46,365.588 74.722,365.473 78.539,362.846C82.537,360.096 84.052,355.323 82.658,351.118C84.21,350.622 85.678,349.797 86.985,348.581C88.476,347.196 89.454,345.526 89.937,343.766C89.454,342.006 88.476,340.336 86.985,338.951C85.678,337.735 84.21,336.91 82.658,336.414C84.052,332.207 82.537,327.437 78.539,324.686C74.722,322.059 70.46,321.944 66.562,323.346C66.302,320.242 65.567,317.24 64.422,314.226L64.416,314.207C62.82,310.039 60.534,304.31 56.098,302.523L56.098,298.099ZM64.226,355.609C61.927,354.694 57.252,352.348 55.867,347.352L59.313,347.352C62.066,350.224 67.138,348.75 70.294,350.018C72.27,350.739 73.376,352.684 72.764,354.362C71.697,357.291 66.845,356.651 64.226,355.609ZM64.226,331.924C61.927,332.838 57.252,335.184 55.867,340.18L59.313,340.18C62.066,337.308 67.138,338.782 70.294,337.514C72.27,336.794 73.376,334.848 72.764,333.17C71.697,330.239 66.845,330.881 64.226,331.924ZM42.072,331.924C44.369,332.838 49.043,335.184 50.429,340.18L46.983,340.18C44.232,337.308 39.158,338.782 36.003,337.514C34.026,336.794 32.92,334.848 33.533,333.17C34.601,330.239 39.451,330.881 42.072,331.924ZM51.835,347.352C50.287,358.219 47.041,361.654 49.974,368.703C51.193,371.608 52.167,373.078 53.148,373.076C54.129,373.078 55.105,371.608 56.324,368.703C59.257,361.654 56.008,358.219 54.461,347.352L51.835,347.352ZM54.461,340.18C56.008,329.314 59.257,325.877 56.324,318.827C55.105,315.924 54.129,314.453 53.148,314.456C52.167,314.453 51.193,315.924 49.974,318.827C47.041,325.877 50.287,329.314 51.835,340.18L54.461,340.18ZM46.597,341.42L59.701,341.42C60.99,341.42 62.046,342.475 62.046,343.766C62.046,345.055 60.99,346.112 59.701,346.112L46.597,346.112C45.306,346.112 44.252,345.055 44.252,343.766C44.252,342.475 45.306,341.42 46.597,341.42ZM42.072,355.609C44.369,354.694 49.043,352.348 50.429,347.352L46.983,347.352C44.232,350.224 39.158,348.75 36.003,350.018C34.026,350.739 32.92,352.684 33.533,354.362C34.601,357.291 39.451,356.651 42.072,355.609ZM22.209,343.766C22.606,344.871 23.273,345.85 24.14,346.656C25.048,347.501 26.101,348.121 27.285,348.5L29.164,349.1L28.542,350.971C27.506,354.093 28.812,357.424 31.49,359.267C34.248,361.164 37.372,361.351 40.462,360.239L42.854,359.377L43.066,361.911C43.287,364.547 43.925,367.088 44.865,369.563L44.868,369.571C46.076,372.723 49.049,378.83 53.148,378.83C57.248,378.83 60.221,372.723 61.427,369.577L61.433,369.56C62.371,367.088 63.011,364.547 63.232,361.911L63.443,359.377L65.834,360.239C68.924,361.351 72.05,361.164 74.807,359.267C77.486,357.424 78.791,354.093 77.754,350.971L77.134,349.1L79.013,348.5C80.195,348.121 81.248,347.501 82.157,346.656C83.023,345.85 83.69,344.871 84.087,343.766C83.69,342.661 83.023,341.682 82.157,340.875C81.248,340.031 80.195,339.409 79.013,339.032L77.134,338.433L77.754,336.561C78.791,333.439 77.486,330.108 74.807,328.266C72.05,326.368 68.924,326.182 65.834,327.293L63.443,328.153L63.232,325.619C63.011,322.985 62.371,320.442 61.433,317.97L61.429,317.961C60.221,314.81 57.248,308.7 53.148,308.7C49.049,308.7 46.076,314.81 44.87,317.955L44.865,317.972C43.925,320.442 43.287,322.985 43.066,325.619L42.854,328.153L40.462,327.293C37.372,326.182 34.248,326.368 31.49,328.266C28.812,330.108 27.506,333.439 28.542,336.561L29.164,338.433L27.285,339.032C26.101,339.409 25.048,340.031 24.14,340.875C23.273,341.682 22.606,342.661 22.209,343.766ZM50.199,298.099L4.218,298.099L4.218,389.434L50.199,389.434L50.199,385.008C45.762,383.222 43.478,377.493 41.88,373.323L41.874,373.307C40.729,370.291 39.994,367.289 39.735,364.186C35.835,365.588 31.576,365.473 27.757,362.846C23.759,360.096 22.244,355.323 23.638,351.118C22.085,350.622 20.618,349.797 19.312,348.581C17.822,347.196 16.843,345.526 16.361,343.766C16.843,342.006 17.822,340.336 19.312,338.951C20.618,337.735 22.085,336.91 23.638,336.414C22.244,332.207 23.759,327.437 27.757,324.686C31.576,322.059 35.835,321.944 39.735,323.346C39.994,320.242 40.729,317.24 41.874,314.226L41.88,314.207C43.478,310.039 45.762,304.31 50.199,302.523L50.199,298.099Z"/>
    </g>
    <g transform="matrix(0.975529,0,0,0.975529,114.185,-275.604)">
        <path d="M37.28,304.248C37.001,304.751 36.762,305.268 36.568,305.799C34.704,306.789 32.902,307.793 30.709,307.104C23.523,304.85 15.171,300.635 10.938,310.193C9.287,313.924 9.579,318.522 12.787,321.452C9.858,325.791 10.864,331.504 14.773,334.782C15.459,334.106 16.203,333.486 16.99,332.93C17.212,323.424 25.562,316.349 34.748,316.305C35.844,312.166 37.531,307.901 39.744,304.248L37.28,304.248ZM37.28,383.282C37.001,382.782 36.762,382.264 36.568,381.733C34.704,380.743 32.902,379.739 30.709,380.428C23.523,382.683 15.171,386.897 10.938,377.339C9.287,373.608 9.579,369.01 12.787,366.08C9.858,361.741 10.864,356.028 14.773,352.75C15.459,353.426 16.203,354.047 16.99,354.602C17.212,364.108 25.562,371.182 34.748,371.227C35.844,375.365 37.531,379.63 39.744,383.282L37.28,383.282ZM69.016,304.248C69.295,304.751 69.535,305.268 69.73,305.799C71.592,306.789 73.395,307.793 75.589,307.104C82.773,304.85 91.127,300.635 95.358,310.193C97.011,313.924 96.718,318.522 93.51,321.452C96.438,325.791 95.433,331.504 91.525,334.782C90.837,334.106 90.095,333.486 89.307,332.93C89.084,323.424 80.734,316.349 71.549,316.305C70.453,312.166 68.765,307.901 66.552,304.248L69.016,304.248ZM69.016,383.282C69.295,382.782 69.535,382.264 69.73,381.733C71.592,380.743 73.395,379.739 75.589,380.428C82.773,382.683 91.127,386.897 95.358,377.339C97.011,373.608 96.718,369.01 93.51,366.08C96.438,361.741 95.433,356.028 91.525,352.75C90.837,353.426 90.095,354.047 89.307,354.602C89.084,364.108 80.734,371.182 71.549,371.227C70.453,375.365 68.765,379.63 66.552,383.282L69.016,383.282ZM56.098,298.099L102.078,298.099L102.078,389.434L56.098,389.434L56.098,385.008C60.534,383.222 62.82,377.493 64.416,373.323L64.422,373.307C65.567,370.291 66.302,367.289 66.562,364.186C70.46,365.588 74.722,365.473 78.539,362.846C82.537,360.096 84.052,355.323 82.658,351.118C84.21,350.622 85.678,349.797 86.985,348.581C88.476,347.196 89.454,345.526 89.937,343.766C89.454,342.006 88.476,340.336 86.985,338.951C85.678,337.735 84.21,336.91 82.658,336.414C84.052,332.207 82.537,327.437 78.539,324.686C74.722,322.059 70.46,321.944 66.562,323.346C66.302,320.242 65.567,317.24 64.422,314.226L64.416,314.207C62.82,310.039 60.534,304.31 56.098,302.523L56.098,298.099ZM64.226,355.609C61.927,354.694 57.252,352.348 55.867,347.352L59.313,347.352C62.066,350.224 67.138,348.75 70.294,350.018C72.27,350.739 73.376,352.684 72.764,354.362C71.697,357.291 66.845,356.651 64.226,355.609ZM64.226,331.924C61.927,332.838 57.252,335.184 55.867,340.18L59.313,340.18C62.066,337.308 67.138,338.782 70.294,337.514C72.27,336.794 73.376,334.848 72.764,333.17C71.697,330.239 66.845,330.881 64.226,331.924ZM42.072,331.924C44.369,332.838 49.043,335.184 50.429,340.18L46.983,340.18C44.232,337.308 39.158,338.782 36.003,337.514C34.026,336.794 32.92,334.848 33.533,333.17C34.601,330.239 39.451,330.881 42.072,331.924ZM51.835,347.352C50.287,358.219 47.041,361.654 49.974,368.703C51.193,371.608 52.167,373.078 53.148,373.076C54.129,373.078 55.105,371.608 56.324,368.703C59.257,361.654 56.008,358.219 54.461,347.352L51.835,347.352ZM54.461,340.18C56.008,329.314 59.257,325.877 56.324,318.827C55.105,315.924 54.129,314.453 53.148,314.456C52.167,314.453 51.193,315.924 49.974,318.827C47.041,325.877 50.287,329.314 51.835,340.18L54.461,340.18ZM46.597,341.42L59.701,341.42C60.99,341.42 62.046,342.475 62.046,343.766C62.046,345.055 60.99,346.112 59.701,346.112L46.597,346.112C45.306,346.112 44.252,345.055 44.252,343.766C44.252,342.475 45.306,341.42 46.597,341.42ZM42.072,355.609C44.369,354.694 49.043,352.348 50.429,347.352L46.983,347.352C44.232,350.224 39.158,348.75 36.003,350.018C34.026,350.739 32.92,352.684 33.533,354.362C34.601,357.291 39.451,356.651 42.072,355.609ZM22.209,343.766C22.606,344.871 23.273,345.85 24.14,346.656C25.048,347.501 26.101,348.121 27.285,348.5L29.164,349.1L28.542,350.971C27.506,354.093 28.812,357.424 31.49,359.267C34.248,361.164 37.372,361.351 40.462,360.239L42.854,359.377L43.066,361.911C43.287,364.547 43.925,367.088 44.865,369.563L44.868,369.571C46.076,372.723 49.049,378.83 53.148,378.83C57.248,378.83 60.221,372.723 61.427,369.577L61.433,369.56C62.371,367.088 63.011,364.547 63.232,361.911L63.443,359.377L65.834,360.239C68.924,361.351 72.05,361.164 74.807,359.267C77.486,357.424 78.791,354.093 77.754,350.971L77.134,349.1L79.013,348.5C80.195,348.121 81.248,347.501 82.157,346.656C83.023,345.85 83.69,344.871 84.087,343.766C83.69,342.661 83.023,341.682 82.157,340.875C81.248,340.031 80.195,339.409 79.013,339.032L77.134,338.433L77.754,336.561C78.791,333.439 77.486,330.108 74.807,328.266C72.05,326.368 68.924,326.182 65.834,327.293L63.443,328.153L63.232,325.619C63.011,322.985 62.371,320.442 61.433,317.97L61.429,317.961C60.221,314.81 57.248,308.7 53.148,308.7C49.049,308.7 46.076,314.81 44.87,317.955L44.865,317.972C43.925,320.442 43.287,322.985 43.066,325.619L42.854,328.153L40.462,327.293C37.372,326.182 34.248,326.368 31.49,328.266C28.812,330.108 27.506,333.439 28.542,336.561L29.164,338.433L27.285,339.032C26.101,339.409 25.048,340.031 24.14,340.875C23.273,341.682 22.606,342.661 22.209,343.766ZM50.199,298.099L4.218,298.099L4.218,389.434L50.199,389.434L50.199,385.008C45.762,383.222 43.478,377.493 41.88,373.323L41.874,373.307C40.729,370.291 39.994,367.289 39.735,364.186C35.835,365.588 31.576,365.473 27.757,362.846C23.759,360.096 22.244,355.323 23.638,351.118C22.085,350.622 20.618,349.797 19.312,348.581C17.822,347.196 16.843,345.526 16.361,343.766C16.843,342.006 17.822,340.336 19.312,338.951C20.618,337.735 22.085,336.91 23.638,336.414C22.244,332.207 23.759,327.437 27.757,324.686C31.576,322.059 35.835,321.944 39.735,323.346C39.994,320.242 40.729,317.24 41.874,314.226L41.88,314.207C43.478,310.039 45.762,304.31 50.199,302.523L50.199,298.099Z"/>
    </g>
    <g transform="matrix(0.975529,0,0,0.975529,114.185,-82.1043)">
        <path d="M37.28,304.248C37.001,304.751 36.762,305.268 36.568,305.799C34.704,306.789 32.902,307.793 30.709,307.104C23.523,304.85 15.171,300.635 10.938,310.193C9.287,313.924 9.579,318.522 12.787,321.452C9.858,325.791 10.864,331.504 14.773,334.782C15.459,334.106 16.203,333.486 16.99,332.93C17.212,323.424 25.562,316.349 34.748,316.305C35.844,312.166 37.531,307.901 39.744,304.248L37.28,304.248ZM37.28,383.282C37.001,382.782 36.762,382.264 36.568,381.733C34.704,380.743 32.902,379.739 30.709,380.428C23.523,382.683 15.171,386.897 10.938,377.339C9.287,373.608 9.579,369.01 12.787,366.08C9.858,361.741 10.864,356.028 14.773,352.75C15.459,353.426 16.203,354.047 16.99,354.602C17.212,364.108 25.562,371.182 34.748,371.227C35.844,375.365 37.531,379.63 39.744,383.282L37.28,383.282ZM69.016,304.248C69.295,304.751 69.535,305.268 69.73,305.799C71.592,306.789 73.395,307.793 75.589,307.104C82.773,304.85 91.127,300.635 95.358,310.193C97.011,313.924 96.718,318.522 93.51,321.452C96.438,325.791 95.433,331.504 91.525,334.782C90.837,334.106 90.095,333.486 89.307,332.93C89.084,323.424 80.734,316.349 71.549,316.305C70.453,312.166 68.765,307.901 66.552,304.248L69.016,304.248ZM69.016,383.282C69.295,382.782 69.535,382.264 69.73,381.733C71.592,380.743 73.395,379.739 75.589,380.428C82.773,382.683 91.127,386.897 95.358,377.339C97.011,373.608 96.718,369.01 93.51,366.08C96.438,361.741 95.433,356.028 91.525,352.75C90.837,353.426 90.095,354.047 89.307,354.602C89.084,364.108 80.734,371.182 71.549,371.227C70.453,375.365 68.765,379.63 66.552,383.282L69.016,383.282ZM56.098,298.099L102.078,298.099L102.078,389.434L56.098,389.434L56.098,385.008C60.534,383.222 62.82,377.493 64.416,373.323L64.422,373.307C65.567,370.291 66.302,367.289 66.562,364.186C70.46,365.588 74.722,365.473 78.539,362.846C82.537,360.096 84.052,355.323 82.658,351.118C84.21,350.622 85.678,349.797 86.985,348.581C88.476,347.196 89.454,345.526 89.937,343.766C89.454,342.006 88.476,340.336 86.985,338.951C85.678,337.735 84.21,336.91 82.658,336.414C84.052,332.207 82.537,327.437 78.539,324.686C74.722,322.059 70.46,321.944 66.562,323.346C66.302,320.242 65.567,317.24 64.422,314.226L64.416,314.207C62.82,310.039 60.534,304.31 56.098,302.523L56.098,298.099ZM64.226,355.609C61.927,354.694 57.252,352.348 55.867,347.352L59.313,347.352C62.066,350.224 67.138,348.75 70.294,350.018C72.27,350.739 73.376,352.684 72.764,354.362C71.697,357.291 66.845,356.651 64.226,355.609ZM64.226,331.924C61.927,332.838 57.252,335.184 55.867,340.18L59.313,340.18C62.066,337.308 67.138,338.782 70.294,337.514C72.27,336.794 73.376,334.848 72.764,333.17C71.697,330.239 66.845,330.881 64.226,331.924ZM42.072,331.924C44.369,332.838 49.043,335.184 50.429,340.18L46.983,340.18C44.232,337.308 39.158,338.782 36.003,337.514C34.026,336.794 32.92,334.848 33.533,333.17C34.601,330.239 39.451,330.881 42.072,331.924ZM51.835,347.352C50.287,358.219 47.041,361.654 49.974,368.703C51.193,371.608 52.167,373.078 53.148,373.076C54.129,373.078 55.105,371.608 56.324,368.703C59.257,361.654 56.008,358.219 54.461,347.352L51.835,347.352ZM54.461,340.18C56.008,329.314 59.257,325.877 56.324,318.827C55.105,315.924 54.129,314.453 53.148,314.456C52.167,314.453 51.193,315.924 49.974,318.827C47.041,325.877 50.287,329.314 51.835,340.18L54.461,340.18ZM46.597,341.42L59.701,341.42C60.99,341.42 62.046,342.475 62.046,343.766C62.046,345.055 60.99,346.112 59.701,346.112L46.597,346.112C45.306,346.112 44.252,345.055 44.252,343.766C44.252,342.475 45.306,341.42 46.597,341.42ZM42.072,355.609C44.369,354.694 49.043,352.348 50.429,347.352L46.983,347.352C44.232,350.224 39.158,348.75 36.003,350.018C34.026,350.739 32.92,352.684 33.533,354.362C34.601,357.291 39.451,356.651 42.072,355.609ZM22.209,343.766C22.606,344.871 23.273,345.85 24.14,346.656C25.048,347.501 26.101,348.121 27.285,348.5L29.164,349.1L28.542,350.971C27.506,354.093 28.812,357.424 31.49,359.267C34.248,361.164 37.372,361.351 40.462,360.239L42.854,359.377L43.066,361.911C43.287,364.547 43.925,367.088 44.865,369.563L44.868,369.571C46.076,372.723 49.049,378.83 53.148,378.83C57.248,378.83 60.221,372.723 61.427,369.577L61.433,369.56C62.371,367.088 63.011,364.547 63.232,361.911L63.443,359.377L65.834,360.239C68.924,361.351 72.05,361.164 74.807,359.267C77.486,357.424 78.791,354.093 77.754,350.971L77.134,349.1L79.013,348.5C80.195,348.121 81.248,347.501 82.157,346.656C83.023,345.85 83.69,344.871 84.087,343.766C83.69,342.661 83.023,341.682 82.157,340.875C81.248,340.031 80.195,339.409 79.013,339.032L77.134,338.433L77.754,336.561C78.791,333.439 77.486,330.108 74.807,328.266C72.05,326.368 68.924,326.182 65.834,327.293L63.443,328.153L63.232,325.619C63.011,322.985 62.371,320.442 61.433,317.97L61.429,317.961C60.221,314.81 57.248,308.7 53.148,308.7C49.049,308.7 46.076,314.81 44.87,317.955L44.865,317.972C43.925,320.442 43.287,322.985 43.066,325.619L42.854,328.153L40.462,327.293C37.372,326.182 34.248,326.368 31.49,328.266C28.812,330.108 27.506,333.439 28.542,336.561L29.164,338.433L27.285,339.032C26.101,339.409 25.048,340.031 24.14,340.875C23.273,341.682 22.606,342.661 22.209,343.766ZM50.199,298.099L4.218,298.099L4.218,389.434L50.199,389.434L50.199,385.008C45.762,383.222 43.478,377.493 41.88,373.323L41.874,373.307C40.729,370.291 39.994,367.289 39.735,364.186C35.835,365.588 31.576,365.473 27.757,362.846C23.759,360.096 22.244,355.323 23.638,351.118C22.085,350.622 20.618,349.797 19.312,348.581C17.822,347.196 16.843,345.526 16.361,343.766C16.843,342.006 17.822,340.336 19.312,338.951C20.618,337.735 22.085,336.91 23.638,336.414C22.244,332.207 23.759,327.437 27.757,324.686C31.576,322.059 35.835,321.944 39.735,323.346C39.994,320.242 40.729,317.24 41.874,314.226L41.88,314.207C43.478,310.039 45.762,304.31 50.199,302.523L50.199,298.099Z"/>
    </g>
    <g transform="matrix(0.975529,0,0,0.975529,217.285,-275.604)">
        <path d="M37.28,304.248C37.001,304.751 36.762,305.268 36.568,305.799C34.704,306.789 32.902,307.793 30.709,307.104C23.523,304.85 15.171,300.635 10.938,310.193C9.287,313.924 9.579,318.522 12.787,321.452C9.858,325.791 10.864,331.504 14.773,334.782C15.459,334.106 16.203,333.486 16.99,332.93C17.212,323.424 25.562,316.349 34.748,316.305C35.844,312.166 37.531,307.901 39.744,304.248L37.28,304.248ZM37.28,383.282C37.001,382.782 36.762,382.264 36.568,381.733C34.704,380.743 32.902,379.739 30.709,380.428C23.523,382.683 15.171,386.897 10.938,377.339C9.287,373.608 9.579,369.01 12.787,366.08C9.858,361.741 10.864,356.028 14.773,352.75C15.459,353.426 16.203,354.047 16.99,354.602C17.212,364.108 25.562,371.182 34.748,371.227C35.844,375.365 37.531,379.63 39.744,383.282L37.28,383.282ZM69.016,304.248C69.295,304.751 69.535,305.268 69.73,305.799C71.592,306.789 73.395,307.793 75.589,307.104C82.773,304.85 91.127,300.635 95.358,310.193C97.011,313.924 96.718,318.522 93.51,321.452C96.438,325.791 95.433,331.504 91.525,334.782C90.837,334.106 90.095,333.486 89.307,332.93C89.084,323.424 80.734,316.349 71.549,316.305C70.453,312.166 68.765,307.901 66.552,304.248L69.016,304.248ZM69.016,383.282C69.295,382.782 69.535,382.264 69.73,381.733C71.592,380.743 73.395,379.739 75.589,380.428C82.773,382.683 91.127,386.897 95.358,377.339C97.011,373.608 96.718,369.01 93.51,366.08C96.438,361.741 95.433,356.028 91.525,352.75C90.837,353.426 90.095,354.047 89.307,354.602C89.084,364.108 80.734,371.182 71.549,371.227C70.453,375.365 68.765,379.63 66.552,383.282L69.016,383.282ZM56.098,298.099L102.078,298.099L102.078,389.434L56.098,389.434L56.098,385.008C60.534,383.222 62.82,377.493 64.416,373.323L64.422,373.307C65.567,370.291 66.302,367.289 66.562,364.186C70.46,365.588 74.722,365.473 78.539,362.846C82.537,360.096 84.052,355.323 82.658,351.118C84.21,350.622 85.678,349.797 86.985,348.581C88.476,347.196 89.454,345.526 89.937,343.766C89.454,342.006 88.476,340.336 86.985,338.951C85.678,337.735 84.21,336.91 82.658,336.414C84.052,332.207 82.537,327.437 78.539,324.686C74.722,322.059 70.46,321.944 66.562,323.346C66.302,320.242 65.567,317.24 64.422,314.226L64.416,314.207C62.82,310.039 60.534,304.31 56.098,302.523L56.098,298.099ZM64.226,355.609C61.927,354.694 57.252,352.348 55.867,347.352L59.313,347.352C62.066,350.224 67.138,348.75 70.294,350.018C72.27,350.739 73.376,352.684 72.764,354.362C71.697,357.291 66.845,356.651 64.226,355.609ZM64.226,331.924C61.927,332.838 57.252,335.184 55.867,340.18L59.313,340.18C62.066,337.308 67.138,338.782 70.294,337.514C72.27,336.794 73.376,334.848 72.764,333.17C71.697,330.239 66.845,330.881 64.226,331.924ZM42.072,331.924C44.369,332.838 49.043,335.184 50.429,340.18L46.983,340.18C44.232,337.308 39.158,338.782 36.003,337.514C34.026,336.794 32.92,334.848 33.533,333.17C34.601,330.239 39.451,330.881 42.072,331.924ZM51.835,347.352C50.287,358.219 47.041,361.654 49.974,368.703C51.193,371.608 52.167,373.078 53.148,373.076C54.129,373.078 55.105,371.608 56.324,368.703C59.257,361.654 56.008,358.219 54.461,347.352L51.835,347.352ZM54.461,340.18C56.008,329.314 59.257,325.877 56.324,318.827C55.105,315.924 54.129,314.453 53.148,314.456C52.167,314.453 51.193,315.924 49.974,318.827C47.041,325.877 50.287,329.314 51.835,340.18L54.461,340.18ZM46.597,341.42L59.701,341.42C60.99,341.42 62.046,342.475 62.046,343.766C62.046,345.055 60.99,346.112 59.701,346.112L46.597,346.112C45.306,346.112 44.252,345.055 44.252,343.766C44.252,342.475 45.306,341.42 46.597,341.42ZM42.072,355.609C44.369,354.694 49.043,352.348 50.429,347.352L46.983,347.352C44.232,350.224 39.158,348.75 36.003,350.018C34.026,350.739 32.92,352.684 33.533,354.362C34.601,357.291 39.451,356.651 42.072,355.609ZM22.209,343.766C22.606,344.871 23.273,345.85 24.14,346.656C25.048,347.501 26.101,348.121 27.285,348.5L29.164,349.1L28.542,350.971C27.506,354.093 28.812,357.424 31.49,359.267C34.248,361.164 37.372,361.351 40.462,360.239L42.854,359.377L43.066,361.911C43.287,364.547 43.925,367.088 44.865,369.563L44.868,369.571C46.076,372.723 49.049,378.83 53.148,378.83C57.248,378.83 60.221,372.723 61.427,369.577L61.433,369.56C62.371,367.088 63.011,364.547 63.232,361.911L63.443,359.377L65.834,360.239C68.924,361.351 72.05,361.164 74.807,359.267C77.486,357.424 78.791,354.093 77.754,350.971L77.134,349.1L79.013,348.5C80.195,348.121 81.248,347.501 82.157,346.656C83.023,345.85 83.69,344.871 84.087,343.766C83.69,342.661 83.023,341.682 82.157,340.875C81.248,340.031 80.195,339.409 79.013,339.032L77.134,338.433L77.754,336.561C78.791,333.439 77.486,330.108 74.807,328.266C72.05,326.368 68.924,326.182 65.834,327.293L63.443,328.153L63.232,325.619C63.011,322.985 62.371,320.442 61.433,317.97L61.429,317.961C60.221,314.81 57.248,308.7 53.148,308.7C49.049,308.7 46.076,314.81 44.87,317.955L44.865,317.972C43.925,320.442 43.287,322.985 43.066,325.619L42.854,328.153L40.462,327.293C37.372,326.182 34.248,326.368 31.49,328.266C28.812,330.108 27.506,333.439 28.542,336.561L29.164,338.433L27.285,339.032C26.101,339.409 25.048,340.031 24.14,340.875C23.273,341.682 22.606,342.661 22.209,343.766ZM50.199,298.099L4.218,298.099L4.218,389.434L50.199,389.434L50.199,385.008C45.762,383.222 43.478,377.493 41.88,373.323L41.874,373.307C40.729,370.291 39.994,367.289 39.735,364.186C35.835,365.588 31.576,365.473 27.757,362.846C23.759,360.096 22.244,355.323 23.638,351.118C22.085,350.622 20.618,349.797 19.312,348.581C17.822,347.196 16.843,345.526 16.361,343.766C16.843,342.006 17.822,340.336 19.312,338.951C20.618,337.735 22.085,336.91 23.638,336.414C22.244,332.207 23.759,327.437 27.757,324.686C31.576,322.059 35.835,321.944 39.735,323.346C39.994,320.242 40.729,317.24 41.874,314.226L41.88,314.207C43.478,310.039 45.762,304.31 50.199,302.523L50.199,298.099Z"/>
    </g>
    <g transform="matrix(0.975529,0,0,0.975529,217.285,-178.904)">
        <path d="M37.28,304.248C37.001,304.751 36.762,305.268 36.568,305.799C34.704,306.789 32.902,307.793 30.709,307.104C23.523,304.85 15.171,300.635 10.938,310.193C9.287,313.924 9.579,318.522 12.787,321.452C9.858,325.791 10.864,331.504 14.773,334.782C15.459,334.106 16.203,333.486 16.99,332.93C17.212,323.424 25.562,316.349 34.748,316.305C35.844,312.166 37.531,307.901 39.744,304.248L37.28,304.248ZM37.28,383.282C37.001,382.782 36.762,382.264 36.568,381.733C34.704,380.743 32.902,379.739 30.709,380.428C23.523,382.683 15.171,386.897 10.938,377.339C9.287,373.608 9.579,369.01 12.787,366.08C9.858,361.741 10.864,356.028 14.773,352.75C15.459,353.426 16.203,354.047 16.99,354.602C17.212,364.108 25.562,371.182 34.748,371.227C35.844,375.365 37.531,379.63 39.744,383.282L37.28,383.282ZM69.016,304.248C69.295,304.751 69.535,305.268 69.73,305.799C71.592,306.789 73.395,307.793 75.589,307.104C82.773,304.85 91.127,300.635 95.358,310.193C97.011,313.924 96.718,318.522 93.51,321.452C96.438,325.791 95.433,331.504 91.525,334.782C90.837,334.106 90.095,333.486 89.307,332.93C89.084,323.424 80.734,316.349 71.549,316.305C70.453,312.166 68.765,307.901 66.552,304.248L69.016,304.248ZM69.016,383.282C69.295,382.782 69.535,382.264 69.73,381.733C71.592,380.743 73.395,379.739 75.589,380.428C82.773,382.683 91.127,386.897 95.358,377.339C97.011,373.608 96.718,369.01 93.51,366.08C96.438,361.741 95.433,356.028 91.525,352.75C90.837,353.426 90.095,354.047 89.307,354.602C89.084,364.108 80.734,371.182 71.549,371.227C70.453,375.365 68.765,379.63 66.552,383.282L69.016,383.282ZM56.098,298.099L102.078,298.099L102.078,389.434L56.098,389.434L56.098,385.008C60.534,383.222 62.82,377.493 64.416,373.323L64.422,373.307C65.567,370.291 66.302,367.289 66.562,364.186C70.46,365.588 74.722,365.473 78.539,362.846C82.537,360.096 84.052,355.323 82.658,351.118C84.21,350.622 85.678,349.797 86.985,348.581C88.476,347.196 89.454,345.526 89.937,343.766C89.454,342.006 88.476,340.336 86.985,338.951C85.678,337.735 84.21,336.91 82.658,336.414C84.052,332.207 82.537,327.437 78.539,324.686C74.722,322.059 70.46,321.944 66.562,323.346C66.302,320.242 65.567,317.24 64.422,314.226L64.416,314.207C62.82,310.039 60.534,304.31 56.098,302.523L56.098,298.099ZM64.226,355.609C61.927,354.694 57.252,352.348 55.867,347.352L59.313,347.352C62.066,350.224 67.138,348.75 70.294,350.018C72.27,350.739 73.376,352.684 72.764,354.362C71.697,357.291 66.845,356.651 64.226,355.609ZM64.226,331.924C61.927,332.838 57.252,335.184 55.867,340.18L59.313,340.18C62.066,337.308 67.138,338.782 70.294,337.514C72.27,336.794 73.376,334.848 72.764,333.17C71.697,330.239 66.845,330.881 64.226,331.924ZM42.072,331.924C44.369,332.838 49.043,335.184 50.429,340.18L46.983,340.18C44.232,337.308 39.158,338.782 36.003,337.514C34.026,336.794 32.92,334.848 33.533,333.17C34.601,330.239 39.451,330.881 42.072,331.924ZM51.835,347.352C50.287,358.219 47.041,361.654 49.974,368.703C51.193,371.608 52.167,373.078 53.148,373.076C54.129,373.078 55.105,371.608 56.324,368.703C59.257,361.654 56.008,358.219 54.461,347.352L51.835,347.352ZM54.461,340.18C56.008,329.314 59.257,325.877 56.324,318.827C55.105,315.924 54.129,314.453 53.148,314.456C52.167,314.453 51.193,315.924 49.974,318.827C47.041,325.877 50.287,329.314 51.835,340.18L54.461,340.18ZM46.597,341.42L59.701,341.42C60.99,341.42 62.046,342.475 62.046,343.766C62.046,345.055 60.99,346.112 59.701,346.112L46.597,346.112C45.306,346.112 44.252,345.055 44.252,343.766C44.252,342.475 45.306,341.42 46.597,341.42ZM42.072,355.609C44.369,354.694 49.043,352.348 50.429,347.352L46.983,347.352C44.232,350.224 39.158,348.75 36.003,350.018C34.026,350.739 32.92,352.684 33.533,354.362C34.601,357.291 39.451,356.651 42.072,355.609ZM22.209,343.766C22.606,344.871 23.273,345.85 24.14,346.656C25.048,347.501 26.101,348.121 27.285,348.5L29.164,349.1L28.542,350.971C27.506,354.093 28.812,357.424 31.49,359.267C34.248,361.164 37.372,361.351 40.462,360.239L42.854,359.377L43.066,361.911C43.287,364.547 43.925,367.088 44.865,369.563L44.868,369.571C46.076,372.723 49.049,378.83 53.148,378.83C57.248,378.83 60.221,372.723 61.427,369.577L61.433,369.56C62.371,367.088 63.011,364.547 63.232,361.911L63.443,359.377L65.834,360.239C68.924,361.351 72.05,361.164 74.807,359.267C77.486,357.424 78.791,354.093 77.754,350.971L77.134,349.1L79.013,348.5C80.195,348.121 81.248,347.501 82.157,346.656C83.023,345.85 83.69,344.871 84.087,343.766C83.69,342.661 83.023,341.682 82.157,340.875C81.248,340.031 80.195,339.409 79.013,339.032L77.134,338.433L77.754,336.561C78.791,333.439 77.486,330.108 74.807,328.266C72.05,326.368 68.924,326.182 65.834,327.293L63.443,328.153L63.232,325.619C63.011,322.985 62.371,320.442 61.433,317.97L61.429,317.961C60.221,314.81 57.248,308.7 53.148,308.7C49.049,308.7 46.076,314.81 44.87,317.955L44.865,317.972C43.925,320.442 43.287,322.985 43.066,325.619L42.854,328.153L40.462,327.293C37.372,326.182 34.248,326.368 31.49,328.266C28.812,330.108 27.506,333.439 28.542,336.561L29.164,338.433L27.285,339.032C26.101,339.409 25.048,340.031 24.14,340.875C23.273,341.682 22.606,342.661 22.209,343.766ZM50.199,298.099L4.218,298.099L4.218,389.434L50.199,389.434L50.199,385.008C45.762,383.222 43.478,377.493 41.88,373.323L41.874,373.307C40.729,370.291 39.994,367.289 39.735,364.186C35.835,365.588 31.576,365.473 27.757,362.846C23.759,360.096 22.244,355.323 23.638,351.118C22.085,350.622 20.618,349.797 19.312,348.581C17.822,347.196 16.843,345.526 16.361,343.766C16.843,342.006 17.822,340.336 19.312,338.951C20.618,337.735 22.085,336.91 23.638,336.414C22.244,332.207 23.759,327.437 27.757,324.686C31.576,322.059 35.835,321.944 39.735,323.346C39.994,320.242 40.729,317.24 41.874,314.226L41.88,314.207C43.478,310.039 45.762,304.31 50.199,302.523L50.199,298.099Z"/>
    </g>
    <g transform="matrix(0.975529,0,0,0.975529,217.285,-82.1043)">
        <path d="M37.28,304.248C37.001,304.751 36.762,305.268 36.568,305.799C34.704,306.789 32.902,307.793 30.709,307.104C23.523,304.85 15.171,300.635 10.938,310.193C9.287,313.924 9.579,318.522 12.787,321.452C9.858,325.791 10.864,331.504 14.773,334.782C15.459,334.106 16.203,333.486 16.99,332.93C17.212,323.424 25.562,316.349 34.748,316.305C35.844,312.166 37.531,307.901 39.744,304.248L37.28,304.248ZM37.28,383.282C37.001,382.782 36.762,382.264 36.568,381.733C34.704,380.743 32.902,379.739 30.709,380.428C23.523,382.683 15.171,386.897 10.938,377.339C9.287,373.608 9.579,369.01 12.787,366.08C9.858,361.741 10.864,356.028 14.773,352.75C15.459,353.426 16.203,354.047 16.99,354.602C17.212,364.108 25.562,371.182 34.748,371.227C35.844,375.365 37.531,379.63 39.744,383.282L37.28,383.282ZM69.016,304.248C69.295,304.751 69.535,305.268 69.73,305.799C71.592,306.789 73.395,307.793 75.589,307.104C82.773,304.85 91.127,300.635 95.358,310.193C97.011,313.924 96.718,318.522 93.51,321.452C96.438,325.791 95.433,331.504 91.525,334.782C90.837,334.106 90.095,333.486 89.307,332.93C89.084,323.424 80.734,316.349 71.549,316.305C70.453,312.166 68.765,307.901 66.552,304.248L69.016,304.248ZM69.016,383.282C69.295,382.782 69.535,382.264 69.73,381.733C71.592,380.743 73.395,379.739 75.589,380.428C82.773,382.683 91.127,386.897 95.358,377.339C97.011,373.608 96.718,369.01 93.51,366.08C96.438,361.741 95.433,356.028 91.525,352.75C90.837,353.426 90.095,354.047 89.307,354.602C89.084,364.108 80.734,371.182 71.549,371.227C70.453,375.365 68.765,379.63 66.552,383.282L69.016,383.282ZM56.098,298.099L102.078,298.099L102.078,389.434L56.098,389.434L56.098,385.008C60.534,383.222 62.82,377.493 64.416,373.323L64.422,373.307C65.567,370.291 66.302,367.289 66.562,364.186C70.46,365.588 74.722,365.473 78.539,362.846C82.537,360.096 84.052,355.323 82.658,351.118C84.21,350.622 85.678,349.797 86.985,348.581C88.476,347.196 89.454,345.526 89.937,343.766C89.454,342.006 88.476,340.336 86.985,338.951C85.678,337.735 84.21,336.91 82.658,336.414C84.052,332.207 82.537,327.437 78.539,324.686C74.722,322.059 70.46,321.944 66.562,323.346C66.302,320.242 65.567,317.24 64.422,314.226L64.416,314.207C62.82,310.039 60.534,304.31 56.098,302.523L56.098,298.099ZM64.226,355.609C61.927,354.694 57.252,352.348 55.867,347.352L59.313,347.352C62.066,350.224 67.138,348.75 70.294,350.018C72.27,350.739 73.376,352.684 72.764,354.362C71.697,357.291 66.845,356.651 64.226,355.609ZM64.226,331.924C61.927,332.838 57.252,335.184 55.867,340.18L59.313,340.18C62.066,337.308 67.138,338.782 70.294,337.514C72.27,336.794 73.376,334.848 72.764,333.17C71.697,330.239 66.845,330.881 64.226,331.924ZM42.072,331.924C44.369,332.838 49.043,335.184 50.429,340.18L46.983,340.18C44.232,337.308 39.158,338.782 36.003,337.514C34.026,336.794 32.92,334.848 33.533,333.17C34.601,330.239 39.451,330.881 42.072,331.924ZM51.835,347.352C50.287,358.219 47.041,361.654 49.974,368.703C51.193,371.608 52.167,373.078 53.148,373.076C54.129,373.078 55.105,371.608 56.324,368.703C59.257,361.654 56.008,358.219 54.461,347.352L51.835,347.352ZM54.461,340.18C56.008,329.314 59.257,325.877 56.324,318.827C55.105,315.924 54.129,314.453 53.148,314.456C52.167,314.453 51.193,315.924 49.974,318.827C47.041,325.877 50.287,329.314 51.835,340.18L54.461,340.18ZM46.597,341.42L59.701,341.42C60.99,341.42 62.046,342.475 62.046,343.766C62.046,345.055 60.99,346.112 59.701,346.112L46.597,346.112C45.306,346.112 44.252,345.055 44.252,343.766C44.252,342.475 45.306,341.42 46.597,341.42ZM42.072,355.609C44.369,354.694 49.043,352.348 50.429,347.352L46.983,347.352C44.232,350.224 39.158,348.75 36.003,350.018C34.026,350.739 32.92,352.684 33.533,354.362C34.601,357.291 39.451,356.651 42.072,355.609ZM22.209,343.766C22.606,344.871 23.273,345.85 24.14,346.656C25.048,347.501 26.101,348.121 27.285,348.5L29.164,349.1L28.542,350.971C27.506,354.093 28.812,357.424 31.49,359.267C34.248,361.164 37.372,361.351 40.462,360.239L42.854,359.377L43.066,361.911C43.287,364.547 43.925,367.088 44.865,369.563L44.868,369.571C46.076,372.723 49.049,378.83 53.148,378.83C57.248,378.83 60.221,372.723 61.427,369.577L61.433,369.56C62.371,367.088 63.011,364.547 63.232,361.911L63.443,359.377L65.834,360.239C68.924,361.351 72.05,361.164 74.807,359.267C77.486,357.424 78.791,354.093 77.754,350.971L77.134,349.1L79.013,348.5C80.195,348.121 81.248,347.501 82.157,346.656C83.023,345.85 83.69,344.871 84.087,343.766C83.69,342.661 83.023,341.682 82.157,340.875C81.248,340.031 80.195,339.409 79.013,339.032L77.134,338.433L77.754,336.561C78.791,333.439 77.486,330.108 74.807,328.266C72.05,326.368 68.924,326.182 65.834,327.293L63.443,328.153L63.232,325.619C63.011,322.985 62.371,320.442 61.433,317.97L61.429,317.961C60.221,314.81 57.248,308.7 53.148,308.7C49.049,308.7 46.076,314.81 44.87,317.955L44.865,317.972C43.925,320.442 43.287,322.985 43.066,325.619L42.854,328.153L40.462,327.293C37.372,326.182 34.248,326.368 31.49,328.266C28.812,330.108 27.506,333.439 28.542,336.561L29.164,338.433L27.285,339.032C26.101,339.409 25.048,340.031 24.14,340.875C23.273,341.682 22.606,342.661 22.209,343.766ZM50.199,298.099L4.218,298.099L4.218,389.434L50.199,389.434L50.199,385.008C45.762,383.222 43.478,377.493 41.88,373.323L41.874,373.307C40.729,370.291 39.994,367.289 39.735,364.186C35.835,365.588 31.576,365.473 27.757,362.846C23.759,360.096 22.244,355.323 23.638,351.118C22.085,350.622 20.618,349.797 19.312,348.581C17.822,347.196 16.843,345.526 16.361,343.766C16.843,342.006 17.822,340.336 19.312,338.951C20.618,337.735 22.085,336.91 23.638,336.414C22.244,332.207 23.759,327.437 27.757,324.686C31.576,322.059 35.835,321.944 39.735,323.346C39.994,320.242 40.729,317.24 41.874,314.226L41.88,314.207C43.478,310.039 45.762,304.31 50.199,302.523L50.199,298.099Z"/>
    </g>
    <g transform="matrix(4.21533,0,0,8.05085,-59.1507,-1030)">
        <rect x="14.929" y="128.409" width="76.981" height="37.934" style="fill:none;stroke:black;stroke-width:1.18px;"/>
    </g>
    <g transform="matrix(1.13746,0,0,2.14095,105.336,-159.191)">
        <rect x="14.929" y="128.409" width="76.981" height="37.934" style="fill:none;stroke:black;stroke-width:4.43px;"/>
    </g>
</svg>
