<?xml version="1.0" encoding="UTF-8" standalone="no"?>
<!DOCTYPE svg PUBLIC "-//W3C//DTD SVG 1.1//EN" "http://www.w3.org/Graphics/SVG/1.1/DTD/svg11.dtd">
<svg width="100%" height="100%" viewBox="0 0 2179 2179" version="1.1" xmlns="http://www.w3.org/2000/svg" xmlns:xlink="http://www.w3.org/1999/xlink" xml:space="preserve" xmlns:serif="http://www.serif.com/" style="fill-rule:evenodd;clip-rule:evenodd;stroke-linejoin:round;stroke-miterlimit:2;">
    <g transform="matrix(1.51191,0,0,1.51191,339.5,-129.342)">
        <rect x="0" y="85.549" width="992.124" height="224.563" style="fill:rgb(0,1,3);"/>
    </g>
    <g transform="matrix(9.25776e-17,-1.51191,1.51191,9.25776e-17,-129.342,1839.5)">
        <rect x="0" y="85.549" width="992.124" height="224.563" style="fill:rgb(0,1,3);"/>
    </g>
    <g transform="matrix(9.25776e-17,-1.51191,1.51191,9.25776e-17,1710.16,1839.5)">
        <rect x="0" y="85.549" width="992.124" height="224.563" style="fill:rgb(0,1,3);"/>
    </g>
    <g transform="matrix(1.51191,0,0,-1.51191,341.338,2308.34)">
        <rect x="0" y="85.549" width="992.124" height="224.563" style="fill:rgb(0,1,3);"/>
    </g>
    <g transform="matrix(1.51191,0,0,1.51191,339.5,-129.342)">
        <path d="M653.634,237.832C686.366,265.815 727.065,290.278 786.134,290.278L965.11,290.278C998.979,289.804 988.299,287.644 963.842,277.099C933.389,263.964 933.896,236.788 911.528,237.157C895.047,237.429 881.811,266.704 852.204,261.449C893.163,251.865 925.654,213.239 880.97,176.739C887.216,218.269 850.979,244.314 816.319,244.287C871.226,238.297 906.931,159.41 840.955,136.094C851.995,169.629 830.699,222.233 792.958,229.87C871.146,186.159 836.436,86.535 768.118,111.271C798.513,133.162 805.491,182.875 777.509,209.564C795.615,181.376 791.948,148.189 774.721,127.114C753.929,101.677 714.191,93.877 679.773,133.78C696.428,130.432 716.713,136.314 727.63,146.496C742.229,160.116 749.13,183.658 733.573,201.738C724.058,212.798 706.946,216.298 688.271,204.509C680.771,199.774 673.819,194.95 667.254,190.146C667.068,191.105 666.909,192.025 666.778,192.893C664.447,208.342 660.322,223.771 653.634,237.832ZM961.284,120.093C960.813,147.441 950.86,179.282 916.862,185.396C891.608,189.936 885.661,160.862 905.767,154.029C925.005,147.491 939.487,145.205 961.284,120.093ZM965.95,144.801C970.618,165.286 973.228,205.325 947.107,218.401C927.354,228.288 914.132,204.468 930.013,195.419C945.918,186.356 955.081,176.271 965.95,144.801ZM974.835,184.866C981.837,201.591 989.984,235.241 969.714,250.226C954.386,261.556 939.618,243.264 951.779,233.219C963.959,223.159 970.255,213.229 974.835,184.866ZM960.354,109.388C940.956,137.172 887.651,158.799 860.216,138.411C849.692,130.591 847.837,118.598 852.985,111.345C859.51,102.154 872.786,104.22 883.599,109.193C908.134,120.484 934.116,121.042 960.354,109.388ZM992.124,104.958C947.542,147.824 1004.38,199.314 981.567,246.933C977.716,254.974 971.72,261.523 966.603,264.078C972.938,273.442 981.08,276.895 992.124,276.2L992.124,104.958ZM493.365,207.901C491.793,181.678 512.874,156.555 540.232,156.76C570.562,156.988 594.835,181.704 623.803,210.077C627.669,201.209 629.62,190.901 631.078,182.456C632.043,176.864 633.922,171.483 636.541,166.47C610.056,145.875 586.152,129.572 548.878,128.231C487.495,126.019 452.975,182.401 463.733,229.691C469.067,231.516 475.073,231.374 480.252,228.966C488.88,224.953 492.751,216.717 493.365,207.901ZM30.838,120.093C31.31,147.441 41.263,179.282 75.26,185.396C100.516,189.936 106.462,160.862 86.357,154.029C67.119,147.491 52.635,145.205 30.838,120.093ZM26.172,144.801C21.505,165.286 18.895,205.325 45.015,218.401C64.769,228.288 77.991,204.468 62.11,195.419C46.205,186.356 37.043,176.271 26.172,144.801ZM17.288,184.866C10.286,201.591 2.138,235.241 22.409,250.226C37.738,261.556 52.505,243.264 40.343,233.219C28.164,223.159 21.869,213.229 17.288,184.866ZM31.769,109.388C51.167,137.172 104.473,158.799 131.907,138.411C142.432,130.591 144.287,118.598 139.138,111.345C132.613,102.154 119.337,104.22 108.525,109.193C83.989,120.484 58.007,121.042 31.769,109.388ZM0,104.958C44.582,147.824 -12.251,199.314 10.556,246.933C14.407,254.974 20.403,261.523 25.52,264.078C19.184,273.442 11.043,276.895 0,276.2L0,104.958ZM471.992,161.279C466.126,158.384 459.397,156.703 451.891,156.76C425.59,156.958 403.842,175.571 379.64,199.015C361.509,216.573 343.579,234.834 323.354,249.992C293.271,272.538 256.29,290.278 205.99,290.278L27.012,290.278C-6.855,289.804 3.824,287.644 28.281,277.099C58.734,263.964 58.227,236.788 80.595,237.157C97.076,237.429 110.313,266.704 139.919,261.449C98.96,251.865 66.469,213.239 111.154,176.739C104.908,218.269 141.145,244.314 175.804,244.287C120.897,238.297 85.192,159.41 151.168,136.094C140.128,169.629 161.424,222.233 199.166,229.87C120.979,186.159 155.688,86.535 224.005,111.271C193.611,133.162 186.632,182.875 214.615,209.564C196.508,181.376 200.176,148.189 217.402,127.114C238.194,101.677 277.932,93.877 312.35,133.78C295.696,130.432 275.41,136.314 264.494,146.496C249.894,160.116 242.993,183.658 258.549,201.738C268.066,212.798 285.178,216.298 303.853,204.509C325.27,190.987 344.536,174.531 364.813,159.424C387.854,142.261 410.34,129.415 443.245,128.231C461.95,127.557 478.15,132.335 491.346,140.629C483.909,146.31 477.377,153.244 471.992,161.279ZM328.1,180.891C323.847,167.008 315.021,152.065 299.839,152.777C292.713,153.113 284.41,156.481 285.307,162.035C285.956,166.065 289.586,168.634 288.061,174.202C286.166,181.138 277.122,181.967 275.731,187.584C274.953,190.731 275.744,197.646 284.95,201.572C277.27,202.321 270.341,200.23 265.938,195.906C258.84,188.934 255.245,176.739 260.999,164.316C268.443,148.238 284.13,140.132 301.722,139.304C320.595,138.415 338.646,149.439 348.556,165.064C341.744,170.345 334.966,175.681 328.1,180.891ZM483.015,282.586C470.104,288.226 451.638,291.375 433.34,290.586C391.36,290.143 361.994,271.593 345.144,239.135C352.556,232.626 359.728,225.839 366.826,218.977C370.332,224.723 374.711,229.031 380.399,232.394C385.781,235.575 391.326,236.341 395.541,238.762C408.89,246.427 409.29,257.167 424.889,262.814C434.06,266.133 442.167,266.739 446.485,265.858C432.406,264.493 421.183,260.948 411.242,249.579C405.513,243.027 396.551,230.47 408.345,225.245C419.573,220.272 425.32,236.609 437.252,244.941C441.916,248.196 452.855,254.534 462.374,252.855C452.99,251.646 445.975,249.005 438.554,243.23C435.486,240.841 432.343,237.679 429.543,234.089C424.495,227.612 418.358,218.304 428.504,213.063C432.642,210.924 436.451,211.8 439.061,213.195C444.403,216.056 446.806,223.45 451.287,228.056C459.456,236.449 472.333,238.575 482.518,233.841C495.171,227.957 500.078,214.526 498.566,200.496L498.606,200.503L499.806,195.441C502.419,184.415 509.228,174.723 518.409,168.677C540.718,206.603 533.297,260.623 483.015,282.586ZM509.109,282.586C522.02,288.226 540.485,291.375 558.783,290.586C618.104,289.961 652.246,253.188 661.463,192.091C663.773,176.77 672.785,151.86 692.285,152.777C699.41,153.113 707.713,156.481 706.817,162.035C706.168,166.065 702.537,168.634 704.063,174.202C705.957,181.138 715.001,181.967 716.393,187.584C717.171,190.731 716.38,197.646 707.173,201.572C714.854,202.321 721.783,200.23 726.186,195.906C733.284,188.934 736.878,176.739 731.124,164.316C723.681,148.238 707.993,140.132 690.401,139.304C664.738,138.095 640.596,158.912 636.374,183.37C631.736,210.238 625.667,224.153 611.725,232.394C606.343,235.575 600.798,236.341 596.582,238.762C583.233,246.427 582.834,257.167 567.235,262.814C558.064,266.133 549.956,266.739 545.638,265.858C559.718,264.493 570.94,260.948 580.882,249.579C586.61,243.027 595.573,230.47 583.778,225.245C572.55,220.272 566.804,236.609 554.871,244.941C550.208,248.196 539.269,254.534 529.749,252.855C539.133,251.646 546.149,249.005 553.569,243.23C556.638,240.841 559.781,237.679 562.58,234.089C567.629,227.612 573.765,218.304 563.62,213.063C559.482,210.924 555.672,211.8 553.063,213.195C547.721,216.056 545.317,223.45 540.836,228.056C538.545,230.409 535.886,232.271 533.018,233.625C528.2,251.772 517.151,267.435 501.116,278.618C503.652,280.032 506.309,281.362 509.109,282.586Z" style="fill:white;"/>
    </g>
    <g transform="matrix(9.25776e-17,-1.51191,1.51191,9.25776e-17,-129.342,1839.5)">
        <path d="M653.634,237.832C686.366,265.815 727.065,290.278 786.134,290.278L965.11,290.278C998.979,289.804 988.299,287.644 963.842,277.099C933.389,263.964 933.896,236.788 911.528,237.157C895.047,237.429 881.811,266.704 852.204,261.449C893.163,251.865 925.654,213.239 880.97,176.739C887.216,218.269 850.979,244.314 816.319,244.287C871.226,238.297 906.931,159.41 840.955,136.094C851.995,169.629 830.699,222.233 792.958,229.87C871.146,186.159 836.436,86.535 768.118,111.271C798.513,133.162 805.491,182.875 777.509,209.564C795.615,181.376 791.948,148.189 774.721,127.114C753.929,101.677 714.191,93.877 679.773,133.78C696.428,130.432 716.713,136.314 727.63,146.496C742.229,160.116 749.13,183.658 733.573,201.738C724.058,212.798 706.946,216.298 688.271,204.509C680.771,199.774 673.819,194.95 667.254,190.146C667.068,191.105 666.909,192.025 666.778,192.893C664.447,208.342 660.322,223.771 653.634,237.832ZM961.284,120.093C960.813,147.441 950.86,179.282 916.862,185.396C891.608,189.936 885.661,160.862 905.767,154.029C925.005,147.491 939.487,145.205 961.284,120.093ZM965.95,144.801C970.618,165.286 973.228,205.325 947.107,218.401C927.354,228.288 914.132,204.468 930.013,195.419C945.918,186.356 955.081,176.271 965.95,144.801ZM974.835,184.866C981.837,201.591 989.984,235.241 969.714,250.226C954.386,261.556 939.618,243.264 951.779,233.219C963.959,223.159 970.255,213.229 974.835,184.866ZM960.354,109.388C940.956,137.172 887.651,158.799 860.216,138.411C849.692,130.591 847.837,118.598 852.985,111.345C859.51,102.154 872.786,104.22 883.599,109.193C908.134,120.484 934.116,121.042 960.354,109.388ZM992.124,104.958C947.542,147.824 1004.38,199.314 981.567,246.933C977.716,254.974 971.72,261.523 966.603,264.078C972.938,273.442 981.08,276.895 992.124,276.2L992.124,104.958ZM493.365,207.901C491.793,181.678 512.874,156.555 540.232,156.76C570.562,156.988 594.835,181.704 623.803,210.077C627.669,201.209 629.62,190.901 631.078,182.456C632.043,176.864 633.922,171.483 636.541,166.47C610.056,145.875 586.152,129.572 548.878,128.231C487.495,126.019 452.975,182.401 463.733,229.691C469.067,231.516 475.073,231.374 480.252,228.966C488.88,224.953 492.751,216.717 493.365,207.901ZM30.838,120.093C31.31,147.441 41.263,179.282 75.26,185.396C100.516,189.936 106.462,160.862 86.357,154.029C67.119,147.491 52.635,145.205 30.838,120.093ZM26.172,144.801C21.505,165.286 18.895,205.325 45.015,218.401C64.769,228.288 77.991,204.468 62.11,195.419C46.205,186.356 37.043,176.271 26.172,144.801ZM17.288,184.866C10.286,201.591 2.138,235.241 22.409,250.226C37.738,261.556 52.505,243.264 40.343,233.219C28.164,223.159 21.869,213.229 17.288,184.866ZM31.769,109.388C51.167,137.172 104.473,158.799 131.907,138.411C142.432,130.591 144.287,118.598 139.138,111.345C132.613,102.154 119.337,104.22 108.525,109.193C83.989,120.484 58.007,121.042 31.769,109.388ZM0,104.958C44.582,147.824 -12.251,199.314 10.556,246.933C14.407,254.974 20.403,261.523 25.52,264.078C19.184,273.442 11.043,276.895 0,276.2L0,104.958ZM471.992,161.279C466.126,158.384 459.397,156.703 451.891,156.76C425.59,156.958 403.842,175.571 379.64,199.015C361.509,216.573 343.579,234.834 323.354,249.992C293.271,272.538 256.29,290.278 205.99,290.278L27.012,290.278C-6.855,289.804 3.824,287.644 28.281,277.099C58.734,263.964 58.227,236.788 80.595,237.157C97.076,237.429 110.313,266.704 139.919,261.449C98.96,251.865 66.469,213.239 111.154,176.739C104.908,218.269 141.145,244.314 175.804,244.287C120.897,238.297 85.192,159.41 151.168,136.094C140.128,169.629 161.424,222.233 199.166,229.87C120.979,186.159 155.688,86.535 224.005,111.271C193.611,133.162 186.632,182.875 214.615,209.564C196.508,181.376 200.176,148.189 217.402,127.114C238.194,101.677 277.932,93.877 312.35,133.78C295.696,130.432 275.41,136.314 264.494,146.496C249.894,160.116 242.993,183.658 258.549,201.738C268.066,212.798 285.178,216.298 303.853,204.509C325.27,190.987 344.536,174.531 364.813,159.424C387.854,142.261 410.34,129.415 443.245,128.231C461.95,127.557 478.15,132.335 491.346,140.629C483.909,146.31 477.377,153.244 471.992,161.279ZM328.1,180.891C323.847,167.008 315.021,152.065 299.839,152.777C292.713,153.113 284.41,156.481 285.307,162.035C285.956,166.065 289.586,168.634 288.061,174.202C286.166,181.138 277.122,181.967 275.731,187.584C274.953,190.731 275.744,197.646 284.95,201.572C277.27,202.321 270.341,200.23 265.938,195.906C258.84,188.934 255.245,176.739 260.999,164.316C268.443,148.238 284.13,140.132 301.722,139.304C320.595,138.415 338.646,149.439 348.556,165.064C341.744,170.345 334.966,175.681 328.1,180.891ZM483.015,282.586C470.104,288.226 451.638,291.375 433.34,290.586C391.36,290.143 361.994,271.593 345.144,239.135C352.556,232.626 359.728,225.839 366.826,218.977C370.332,224.723 374.711,229.031 380.399,232.394C385.781,235.575 391.326,236.341 395.541,238.762C408.89,246.427 409.29,257.167 424.889,262.814C434.06,266.133 442.167,266.739 446.485,265.858C432.406,264.493 421.183,260.948 411.242,249.579C405.513,243.027 396.551,230.47 408.345,225.245C419.573,220.272 425.32,236.609 437.252,244.941C441.916,248.196 452.855,254.534 462.374,252.855C452.99,251.646 445.975,249.005 438.554,243.23C435.486,240.841 432.343,237.679 429.543,234.089C424.495,227.612 418.358,218.304 428.504,213.063C432.642,210.924 436.451,211.8 439.061,213.195C444.403,216.056 446.806,223.45 451.287,228.056C459.456,236.449 472.333,238.575 482.518,233.841C495.171,227.957 500.078,214.526 498.566,200.496L498.606,200.503L499.806,195.441C502.419,184.415 509.228,174.723 518.409,168.677C540.718,206.603 533.297,260.623 483.015,282.586ZM509.109,282.586C522.02,288.226 540.485,291.375 558.783,290.586C618.104,289.961 652.246,253.188 661.463,192.091C663.773,176.77 672.785,151.86 692.285,152.777C699.41,153.113 707.713,156.481 706.817,162.035C706.168,166.065 702.537,168.634 704.063,174.202C705.957,181.138 715.001,181.967 716.393,187.584C717.171,190.731 716.38,197.646 707.173,201.572C714.854,202.321 721.783,200.23 726.186,195.906C733.284,188.934 736.878,176.739 731.124,164.316C723.681,148.238 707.993,140.132 690.401,139.304C664.738,138.095 640.596,158.912 636.374,183.37C631.736,210.238 625.667,224.153 611.725,232.394C606.343,235.575 600.798,236.341 596.582,238.762C583.233,246.427 582.834,257.167 567.235,262.814C558.064,266.133 549.956,266.739 545.638,265.858C559.718,264.493 570.94,260.948 580.882,249.579C586.61,243.027 595.573,230.47 583.778,225.245C572.55,220.272 566.804,236.609 554.871,244.941C550.208,248.196 539.269,254.534 529.749,252.855C539.133,251.646 546.149,249.005 553.569,243.23C556.638,240.841 559.781,237.679 562.58,234.089C567.629,227.612 573.765,218.304 563.62,213.063C559.482,210.924 555.672,211.8 553.063,213.195C547.721,216.056 545.317,223.45 540.836,228.056C538.545,230.409 535.886,232.271 533.018,233.625C528.2,251.772 517.151,267.435 501.116,278.618C503.652,280.032 506.309,281.362 509.109,282.586Z" style="fill:white;"/>
    </g>
    <g transform="matrix(-9.25776e-17,-1.51191,-1.51191,9.25776e-17,2308.36,1839.5)">
        <path d="M653.634,237.832C686.366,265.815 727.065,290.278 786.134,290.278L965.11,290.278C998.979,289.804 988.299,287.644 963.842,277.099C933.389,263.964 933.896,236.788 911.528,237.157C895.047,237.429 881.811,266.704 852.204,261.449C893.163,251.865 925.654,213.239 880.97,176.739C887.216,218.269 850.979,244.314 816.319,244.287C871.226,238.297 906.931,159.41 840.955,136.094C851.995,169.629 830.699,222.233 792.958,229.87C871.146,186.159 836.436,86.535 768.118,111.271C798.513,133.162 805.491,182.875 777.509,209.564C795.615,181.376 791.948,148.189 774.721,127.114C753.929,101.677 714.191,93.877 679.773,133.78C696.428,130.432 716.713,136.314 727.63,146.496C742.229,160.116 749.13,183.658 733.573,201.738C724.058,212.798 706.946,216.298 688.271,204.509C680.771,199.774 673.819,194.95 667.254,190.146C667.068,191.105 666.909,192.025 666.778,192.893C664.447,208.342 660.322,223.771 653.634,237.832ZM961.284,120.093C960.813,147.441 950.86,179.282 916.862,185.396C891.608,189.936 885.661,160.862 905.767,154.029C925.005,147.491 939.487,145.205 961.284,120.093ZM965.95,144.801C970.618,165.286 973.228,205.325 947.107,218.401C927.354,228.288 914.132,204.468 930.013,195.419C945.918,186.356 955.081,176.271 965.95,144.801ZM974.835,184.866C981.837,201.591 989.984,235.241 969.714,250.226C954.386,261.556 939.618,243.264 951.779,233.219C963.959,223.159 970.255,213.229 974.835,184.866ZM960.354,109.388C940.956,137.172 887.651,158.799 860.216,138.411C849.692,130.591 847.837,118.598 852.985,111.345C859.51,102.154 872.786,104.22 883.599,109.193C908.134,120.484 934.116,121.042 960.354,109.388ZM992.124,104.958C947.542,147.824 1004.38,199.314 981.567,246.933C977.716,254.974 971.72,261.523 966.603,264.078C972.938,273.442 981.08,276.895 992.124,276.2L992.124,104.958ZM493.365,207.901C491.793,181.678 512.874,156.555 540.232,156.76C570.562,156.988 594.835,181.704 623.803,210.077C627.669,201.209 629.62,190.901 631.078,182.456C632.043,176.864 633.922,171.483 636.541,166.47C610.056,145.875 586.152,129.572 548.878,128.231C487.495,126.019 452.975,182.401 463.733,229.691C469.067,231.516 475.073,231.374 480.252,228.966C488.88,224.953 492.751,216.717 493.365,207.901ZM30.838,120.093C31.31,147.441 41.263,179.282 75.26,185.396C100.516,189.936 106.462,160.862 86.357,154.029C67.119,147.491 52.635,145.205 30.838,120.093ZM26.172,144.801C21.505,165.286 18.895,205.325 45.015,218.401C64.769,228.288 77.991,204.468 62.11,195.419C46.205,186.356 37.043,176.271 26.172,144.801ZM17.288,184.866C10.286,201.591 2.138,235.241 22.409,250.226C37.738,261.556 52.505,243.264 40.343,233.219C28.164,223.159 21.869,213.229 17.288,184.866ZM31.769,109.388C51.167,137.172 104.473,158.799 131.907,138.411C142.432,130.591 144.287,118.598 139.138,111.345C132.613,102.154 119.337,104.22 108.525,109.193C83.989,120.484 58.007,121.042 31.769,109.388ZM0,104.958C44.582,147.824 -12.251,199.314 10.556,246.933C14.407,254.974 20.403,261.523 25.52,264.078C19.184,273.442 11.043,276.895 0,276.2L0,104.958ZM471.992,161.279C466.126,158.384 459.397,156.703 451.891,156.76C425.59,156.958 403.842,175.571 379.64,199.015C361.509,216.573 343.579,234.834 323.354,249.992C293.271,272.538 256.29,290.278 205.99,290.278L27.012,290.278C-6.855,289.804 3.824,287.644 28.281,277.099C58.734,263.964 58.227,236.788 80.595,237.157C97.076,237.429 110.313,266.704 139.919,261.449C98.96,251.865 66.469,213.239 111.154,176.739C104.908,218.269 141.145,244.314 175.804,244.287C120.897,238.297 85.192,159.41 151.168,136.094C140.128,169.629 161.424,222.233 199.166,229.87C120.979,186.159 155.688,86.535 224.005,111.271C193.611,133.162 186.632,182.875 214.615,209.564C196.508,181.376 200.176,148.189 217.402,127.114C238.194,101.677 277.932,93.877 312.35,133.78C295.696,130.432 275.41,136.314 264.494,146.496C249.894,160.116 242.993,183.658 258.549,201.738C268.066,212.798 285.178,216.298 303.853,204.509C325.27,190.987 344.536,174.531 364.813,159.424C387.854,142.261 410.34,129.415 443.245,128.231C461.95,127.557 478.15,132.335 491.346,140.629C483.909,146.31 477.377,153.244 471.992,161.279ZM328.1,180.891C323.847,167.008 315.021,152.065 299.839,152.777C292.713,153.113 284.41,156.481 285.307,162.035C285.956,166.065 289.586,168.634 288.061,174.202C286.166,181.138 277.122,181.967 275.731,187.584C274.953,190.731 275.744,197.646 284.95,201.572C277.27,202.321 270.341,200.23 265.938,195.906C258.84,188.934 255.245,176.739 260.999,164.316C268.443,148.238 284.13,140.132 301.722,139.304C320.595,138.415 338.646,149.439 348.556,165.064C341.744,170.345 334.966,175.681 328.1,180.891ZM483.015,282.586C470.104,288.226 451.638,291.375 433.34,290.586C391.36,290.143 361.994,271.593 345.144,239.135C352.556,232.626 359.728,225.839 366.826,218.977C370.332,224.723 374.711,229.031 380.399,232.394C385.781,235.575 391.326,236.341 395.541,238.762C408.89,246.427 409.29,257.167 424.889,262.814C434.06,266.133 442.167,266.739 446.485,265.858C432.406,264.493 421.183,260.948 411.242,249.579C405.513,243.027 396.551,230.47 408.345,225.245C419.573,220.272 425.32,236.609 437.252,244.941C441.916,248.196 452.855,254.534 462.374,252.855C452.99,251.646 445.975,249.005 438.554,243.23C435.486,240.841 432.343,237.679 429.543,234.089C424.495,227.612 418.358,218.304 428.504,213.063C432.642,210.924 436.451,211.8 439.061,213.195C444.403,216.056 446.806,223.45 451.287,228.056C459.456,236.449 472.333,238.575 482.518,233.841C495.171,227.957 500.078,214.526 498.566,200.496L498.606,200.503L499.806,195.441C502.419,184.415 509.228,174.723 518.409,168.677C540.718,206.603 533.297,260.623 483.015,282.586ZM509.109,282.586C522.02,288.226 540.485,291.375 558.783,290.586C618.104,289.961 652.246,253.188 661.463,192.091C663.773,176.77 672.785,151.86 692.285,152.777C699.41,153.113 707.713,156.481 706.817,162.035C706.168,166.065 702.537,168.634 704.063,174.202C705.957,181.138 715.001,181.967 716.393,187.584C717.171,190.731 716.38,197.646 707.173,201.572C714.854,202.321 721.783,200.23 726.186,195.906C733.284,188.934 736.878,176.739 731.124,164.316C723.681,148.238 707.993,140.132 690.401,139.304C664.738,138.095 640.596,158.912 636.374,183.37C631.736,210.238 625.667,224.153 611.725,232.394C606.343,235.575 600.798,236.341 596.582,238.762C583.233,246.427 582.834,257.167 567.235,262.814C558.064,266.133 549.956,266.739 545.638,265.858C559.718,264.493 570.94,260.948 580.882,249.579C586.61,243.027 595.573,230.47 583.778,225.245C572.55,220.272 566.804,236.609 554.871,244.941C550.208,248.196 539.269,254.534 529.749,252.855C539.133,251.646 546.149,249.005 553.569,243.23C556.638,240.841 559.781,237.679 562.58,234.089C567.629,227.612 573.765,218.304 563.62,213.063C559.482,210.924 555.672,211.8 553.063,213.195C547.721,216.056 545.317,223.45 540.836,228.056C538.545,230.409 535.886,232.271 533.018,233.625C528.2,251.772 517.151,267.435 501.116,278.618C503.652,280.032 506.309,281.362 509.109,282.586Z" style="fill:white;"/>
    </g>
    <g transform="matrix(1.51191,0,0,-1.51191,341.338,2308.34)">
        <path d="M653.634,237.832C686.366,265.815 727.065,290.278 786.134,290.278L965.11,290.278C998.979,289.804 988.299,287.644 963.842,277.099C933.389,263.964 933.896,236.788 911.528,237.157C895.047,237.429 881.811,266.704 852.204,261.449C893.163,251.865 925.654,213.239 880.97,176.739C887.216,218.269 850.979,244.314 816.319,244.287C871.226,238.297 906.931,159.41 840.955,136.094C851.995,169.629 830.699,222.233 792.958,229.87C871.146,186.159 836.436,86.535 768.118,111.271C798.513,133.162 805.491,182.875 777.509,209.564C795.615,181.376 791.948,148.189 774.721,127.114C753.929,101.677 714.191,93.877 679.773,133.78C696.428,130.432 716.713,136.314 727.63,146.496C742.229,160.116 749.13,183.658 733.573,201.738C724.058,212.798 706.946,216.298 688.271,204.509C680.771,199.774 673.819,194.95 667.254,190.146C667.068,191.105 666.909,192.025 666.778,192.893C664.447,208.342 660.322,223.771 653.634,237.832ZM961.284,120.093C960.813,147.441 950.86,179.282 916.862,185.396C891.608,189.936 885.661,160.862 905.767,154.029C925.005,147.491 939.487,145.205 961.284,120.093ZM965.95,144.801C970.618,165.286 973.228,205.325 947.107,218.401C927.354,228.288 914.132,204.468 930.013,195.419C945.918,186.356 955.081,176.271 965.95,144.801ZM974.835,184.866C981.837,201.591 989.984,235.241 969.714,250.226C954.386,261.556 939.618,243.264 951.779,233.219C963.959,223.159 970.255,213.229 974.835,184.866ZM960.354,109.388C940.956,137.172 887.651,158.799 860.216,138.411C849.692,130.591 847.837,118.598 852.985,111.345C859.51,102.154 872.786,104.22 883.599,109.193C908.134,120.484 934.116,121.042 960.354,109.388ZM992.124,104.958C947.542,147.824 1004.38,199.314 981.567,246.933C977.716,254.974 971.72,261.523 966.603,264.078C972.938,273.442 981.08,276.895 992.124,276.2L992.124,104.958ZM493.365,207.901C491.793,181.678 512.874,156.555 540.232,156.76C570.562,156.988 594.835,181.704 623.803,210.077C627.669,201.209 629.62,190.901 631.078,182.456C632.043,176.864 633.922,171.483 636.541,166.47C610.056,145.875 586.152,129.572 548.878,128.231C487.495,126.019 452.975,182.401 463.733,229.691C469.067,231.516 475.073,231.374 480.252,228.966C488.88,224.953 492.751,216.717 493.365,207.901ZM30.838,120.093C31.31,147.441 41.263,179.282 75.26,185.396C100.516,189.936 106.462,160.862 86.357,154.029C67.119,147.491 52.635,145.205 30.838,120.093ZM26.172,144.801C21.505,165.286 18.895,205.325 45.015,218.401C64.769,228.288 77.991,204.468 62.11,195.419C46.205,186.356 37.043,176.271 26.172,144.801ZM17.288,184.866C10.286,201.591 2.138,235.241 22.409,250.226C37.738,261.556 52.505,243.264 40.343,233.219C28.164,223.159 21.869,213.229 17.288,184.866ZM31.769,109.388C51.167,137.172 104.473,158.799 131.907,138.411C142.432,130.591 144.287,118.598 139.138,111.345C132.613,102.154 119.337,104.22 108.525,109.193C83.989,120.484 58.007,121.042 31.769,109.388ZM0,104.958C44.582,147.824 -12.251,199.314 10.556,246.933C14.407,254.974 20.403,261.523 25.52,264.078C19.184,273.442 11.043,276.895 0,276.2L0,104.958ZM471.992,161.279C466.126,158.384 459.397,156.703 451.891,156.76C425.59,156.958 403.842,175.571 379.64,199.015C361.509,216.573 343.579,234.834 323.354,249.992C293.271,272.538 256.29,290.278 205.99,290.278L27.012,290.278C-6.855,289.804 3.824,287.644 28.281,277.099C58.734,263.964 58.227,236.788 80.595,237.157C97.076,237.429 110.313,266.704 139.919,261.449C98.96,251.865 66.469,213.239 111.154,176.739C104.908,218.269 141.145,244.314 175.804,244.287C120.897,238.297 85.192,159.41 151.168,136.094C140.128,169.629 161.424,222.233 199.166,229.87C120.979,186.159 155.688,86.535 224.005,111.271C193.611,133.162 186.632,182.875 214.615,209.564C196.508,181.376 200.176,148.189 217.402,127.114C238.194,101.677 277.932,93.877 312.35,133.78C295.696,130.432 275.41,136.314 264.494,146.496C249.894,160.116 242.993,183.658 258.549,201.738C268.066,212.798 285.178,216.298 303.853,204.509C325.27,190.987 344.536,174.531 364.813,159.424C387.854,142.261 410.34,129.415 443.245,128.231C461.95,127.557 478.15,132.335 491.346,140.629C483.909,146.31 477.377,153.244 471.992,161.279ZM328.1,180.891C323.847,167.008 315.021,152.065 299.839,152.777C292.713,153.113 284.41,156.481 285.307,162.035C285.956,166.065 289.586,168.634 288.061,174.202C286.166,181.138 277.122,181.967 275.731,187.584C274.953,190.731 275.744,197.646 284.95,201.572C277.27,202.321 270.341,200.23 265.938,195.906C258.84,188.934 255.245,176.739 260.999,164.316C268.443,148.238 284.13,140.132 301.722,139.304C320.595,138.415 338.646,149.439 348.556,165.064C341.744,170.345 334.966,175.681 328.1,180.891ZM483.015,282.586C470.104,288.226 451.638,291.375 433.34,290.586C391.36,290.143 361.994,271.593 345.144,239.135C352.556,232.626 359.728,225.839 366.826,218.977C370.332,224.723 374.711,229.031 380.399,232.394C385.781,235.575 391.326,236.341 395.541,238.762C408.89,246.427 409.29,257.167 424.889,262.814C434.06,266.133 442.167,266.739 446.485,265.858C432.406,264.493 421.183,260.948 411.242,249.579C405.513,243.027 396.551,230.47 408.345,225.245C419.573,220.272 425.32,236.609 437.252,244.941C441.916,248.196 452.855,254.534 462.374,252.855C452.99,251.646 445.975,249.005 438.554,243.23C435.486,240.841 432.343,237.679 429.543,234.089C424.495,227.612 418.358,218.304 428.504,213.063C432.642,210.924 436.451,211.8 439.061,213.195C444.403,216.056 446.806,223.45 451.287,228.056C459.456,236.449 472.333,238.575 482.518,233.841C495.171,227.957 500.078,214.526 498.566,200.496L498.606,200.503L499.806,195.441C502.419,184.415 509.228,174.723 518.409,168.677C540.718,206.603 533.297,260.623 483.015,282.586ZM509.109,282.586C522.02,288.226 540.485,291.375 558.783,290.586C618.104,289.961 652.246,253.188 661.463,192.091C663.773,176.77 672.785,151.86 692.285,152.777C699.41,153.113 707.713,156.481 706.817,162.035C706.168,166.065 702.537,168.634 704.063,174.202C705.957,181.138 715.001,181.967 716.393,187.584C717.171,190.731 716.38,197.646 707.173,201.572C714.854,202.321 721.783,200.23 726.186,195.906C733.284,188.934 736.878,176.739 731.124,164.316C723.681,148.238 707.993,140.132 690.401,139.304C664.738,138.095 640.596,158.912 636.374,183.37C631.736,210.238 625.667,224.153 611.725,232.394C606.343,235.575 600.798,236.341 596.582,238.762C583.233,246.427 582.834,257.167 567.235,262.814C558.064,266.133 549.956,266.739 545.638,265.858C559.718,264.493 570.94,260.948 580.882,249.579C586.61,243.027 595.573,230.47 583.778,225.245C572.55,220.272 566.804,236.609 554.871,244.941C550.208,248.196 539.269,254.534 529.749,252.855C539.133,251.646 546.149,249.005 553.569,243.23C556.638,240.841 559.781,237.679 562.58,234.089C567.629,227.612 573.765,218.304 563.62,213.063C559.482,210.924 555.672,211.8 553.063,213.195C547.721,216.056 545.317,223.45 540.836,228.056C538.545,230.409 535.886,232.271 533.018,233.625C528.2,251.772 517.151,267.435 501.116,278.618C503.652,280.032 506.309,281.362 509.109,282.586Z" style="fill:white;"/>
    </g>
    <g transform="matrix(1.51191,0,0,1.51191,339.5,-129.342)">
        <path d="M535.377,171.088C539.867,181.013 542.75,191.665 543.834,202.495C544.653,201.919 545.529,201.376 546.472,200.872C553.906,196.896 562.514,196.759 570.036,200.647C574.461,202.933 578.114,206.199 580.42,210.358C583.506,210.455 586.542,211.184 589.438,212.468C594.211,214.581 598.184,217.859 600.689,222.208C602.066,221.675 603.39,221.086 604.613,220.364C606.619,219.178 608.385,217.711 609.943,216.031C593.469,199.69 570.245,176.291 548.762,171.691C545.92,171.082 543.036,170.757 540.127,170.735C538.514,170.724 536.927,170.845 535.377,171.088Z" style="fill:white;"/>
    </g>
    <g transform="matrix(9.25776e-17,-1.51191,1.51191,9.25776e-17,-129.342,1839.5)">
        <path d="M535.377,171.088C539.867,181.013 542.75,191.665 543.834,202.495C544.653,201.919 545.529,201.376 546.472,200.872C553.906,196.896 562.514,196.759 570.036,200.647C574.461,202.933 578.114,206.199 580.42,210.358C583.506,210.455 586.542,211.184 589.438,212.468C594.211,214.581 598.184,217.859 600.689,222.208C602.066,221.675 603.39,221.086 604.613,220.364C606.619,219.178 608.385,217.711 609.943,216.031C593.469,199.69 570.245,176.291 548.762,171.691C545.92,171.082 543.036,170.757 540.127,170.735C538.514,170.724 536.927,170.845 535.377,171.088Z" style="fill:white;"/>
    </g>
    <g transform="matrix(9.25776e-17,-1.51191,1.51191,9.25776e-17,1710.16,1839.5)">
        <path d="M535.377,171.088C539.867,181.013 542.75,191.665 543.834,202.495C544.653,201.919 545.529,201.376 546.472,200.872C553.906,196.896 562.514,196.759 570.036,200.647C574.461,202.933 578.114,206.199 580.42,210.358C583.506,210.455 586.542,211.184 589.438,212.468C594.211,214.581 598.184,217.859 600.689,222.208C602.066,221.675 603.39,221.086 604.613,220.364C606.619,219.178 608.385,217.711 609.943,216.031C593.469,199.69 570.245,176.291 548.762,171.691C545.92,171.082 543.036,170.757 540.127,170.735C538.514,170.724 536.927,170.845 535.377,171.088Z" style="fill:white;"/>
    </g>
    <g transform="matrix(1.51191,0,0,-1.51191,341.338,2308.34)">
        <path d="M535.377,171.088C539.867,181.013 542.75,191.665 543.834,202.495C544.653,201.919 545.529,201.376 546.472,200.872C553.906,196.896 562.514,196.759 570.036,200.647C574.461,202.933 578.114,206.199 580.42,210.358C583.506,210.455 586.542,211.184 589.438,212.468C594.211,214.581 598.184,217.859 600.689,222.208C602.066,221.675 603.39,221.086 604.613,220.364C606.619,219.178 608.385,217.711 609.943,216.031C593.469,199.69 570.245,176.291 548.762,171.691C545.92,171.082 543.036,170.757 540.127,170.735C538.514,170.724 536.927,170.845 535.377,171.088Z" style="fill:white;"/>
    </g>
    <g transform="matrix(1.51191,0,0,1.51191,339.5,-129.342)">
        <path d="M456.775,171.044C455.205,170.823 453.61,170.724 451.996,170.735C428.184,170.913 405.304,193.612 389.362,209.053C386.938,211.401 384.521,213.757 382.104,216.112C383.652,217.741 385.421,219.128 387.511,220.364C388.702,221.067 389.986,221.644 391.326,222.166C393.557,218.24 397.259,214.871 402.685,212.468C405.543,211.201 408.538,210.475 411.583,210.361C413.654,206.574 417.086,203.232 422.088,200.647C429.609,196.759 438.218,196.896 445.654,200.873C446.598,201.379 447.474,201.921 448.295,202.499C449.381,191.648 452.273,180.984 456.775,171.044Z" style="fill:white;"/>
    </g>
    <g transform="matrix(9.25776e-17,-1.51191,1.51191,9.25776e-17,-129.342,1839.5)">
        <path d="M456.775,171.044C455.205,170.823 453.61,170.724 451.996,170.735C428.184,170.913 405.304,193.612 389.362,209.053C386.938,211.401 384.521,213.757 382.104,216.112C383.652,217.741 385.421,219.128 387.511,220.364C388.702,221.067 389.986,221.644 391.326,222.166C393.557,218.24 397.259,214.871 402.685,212.468C405.543,211.201 408.538,210.475 411.583,210.361C413.654,206.574 417.086,203.232 422.088,200.647C429.609,196.759 438.218,196.896 445.654,200.873C446.598,201.379 447.474,201.921 448.295,202.499C449.381,191.648 452.273,180.984 456.775,171.044Z" style="fill:white;"/>
    </g>
    <g transform="matrix(9.25776e-17,-1.51191,1.51191,9.25776e-17,1710.16,1839.5)">
        <path d="M456.775,171.044C455.205,170.823 453.61,170.724 451.996,170.735C428.184,170.913 405.304,193.612 389.362,209.053C386.938,211.401 384.521,213.757 382.104,216.112C383.652,217.741 385.421,219.128 387.511,220.364C388.702,221.067 389.986,221.644 391.326,222.166C393.557,218.24 397.259,214.871 402.685,212.468C405.543,211.201 408.538,210.475 411.583,210.361C413.654,206.574 417.086,203.232 422.088,200.647C429.609,196.759 438.218,196.896 445.654,200.873C446.598,201.379 447.474,201.921 448.295,202.499C449.381,191.648 452.273,180.984 456.775,171.044Z" style="fill:white;"/>
    </g>
    <g transform="matrix(1.51191,0,0,-1.51191,341.338,2308.34)">
        <path d="M456.775,171.044C455.205,170.823 453.61,170.724 451.996,170.735C428.184,170.913 405.304,193.612 389.362,209.053C386.938,211.401 384.521,213.757 382.104,216.112C383.652,217.741 385.421,219.128 387.511,220.364C388.702,221.067 389.986,221.644 391.326,222.166C393.557,218.24 397.259,214.871 402.685,212.468C405.543,211.201 408.538,210.475 411.583,210.361C413.654,206.574 417.086,203.232 422.088,200.647C429.609,196.759 438.218,196.896 445.654,200.873C446.598,201.379 447.474,201.921 448.295,202.499C449.381,191.648 452.273,180.984 456.775,171.044Z" style="fill:white;"/>
    </g>
    <g transform="matrix(1.51191,0,0,1.51191,339.5,-129.342)">
        <path d="M375.114,290.278L280.724,290.278C298.457,283.196 315.334,273.466 331.734,261.176C334.08,259.418 336.393,257.623 338.677,255.795C348.416,270.817 360.732,282.262 375.114,290.278Z" style="fill:white;"/>
    </g>
    <g transform="matrix(9.25776e-17,-1.51191,1.51191,9.25776e-17,-129.342,1839.5)">
        <path d="M375.114,290.278L280.724,290.278C298.457,283.196 315.334,273.466 331.734,261.176C334.08,259.418 336.393,257.623 338.677,255.795C348.416,270.817 360.732,282.262 375.114,290.278Z" style="fill:white;"/>
    </g>
    <g transform="matrix(9.25776e-17,-1.51191,1.51191,9.25776e-17,1710.16,1839.5)">
        <path d="M375.114,290.278L280.724,290.278C298.457,283.196 315.334,273.466 331.734,261.176C334.08,259.418 336.393,257.623 338.677,255.795C348.416,270.817 360.732,282.262 375.114,290.278Z" style="fill:white;"/>
    </g>
    <g transform="matrix(1.51191,0,0,-1.51191,341.338,2308.34)">
        <path d="M375.114,290.278L280.724,290.278C298.457,283.196 315.334,273.466 331.734,261.176C334.08,259.418 336.393,257.623 338.677,255.795C348.416,270.817 360.732,282.262 375.114,290.278Z" style="fill:white;"/>
    </g>
    <g transform="matrix(1.51191,0,0,1.51191,339.5,-129.342)">
        <path d="M711.369,290.278L617.096,290.278C631.981,281.946 644.064,270.222 653.418,255.769C671.917,270.475 690.956,282.101 711.369,290.278Z" style="fill:white;"/>
    </g>
    <g transform="matrix(9.25776e-17,-1.51191,1.51191,9.25776e-17,-129.342,1839.5)">
        <path d="M711.369,290.278L617.096,290.278C631.981,281.946 644.064,270.222 653.418,255.769C671.917,270.475 690.956,282.101 711.369,290.278Z" style="fill:white;"/>
    </g>
    <g transform="matrix(9.25776e-17,-1.51191,1.51191,9.25776e-17,1710.16,1839.5)">
        <path d="M711.369,290.278L617.096,290.278C631.981,281.946 644.064,270.222 653.418,255.769C671.917,270.475 690.956,282.101 711.369,290.278Z" style="fill:white;"/>
    </g>
    <g transform="matrix(1.51191,0,0,-1.51191,341.338,2308.34)">
        <path d="M711.369,290.278L617.096,290.278C631.981,281.946 644.064,270.222 653.418,255.769C671.917,270.475 690.956,282.101 711.369,290.278Z" style="fill:white;"/>
    </g>
    <g transform="matrix(1.51191,0,0,1.51191,339.5,-129.342)">
        <path d="M302.428,105.942L689.695,105.942C682.097,111.204 675.251,117.626 669.191,124.652L664.521,130.066C654.18,134.306 644.867,141.139 637.591,149.676C610.486,129.334 585.723,115.572 549.381,114.263C530.291,113.575 511.938,117.97 496.075,127.16C479.908,117.754 461.453,113.59 442.742,114.263C408.191,115.509 383.44,128.121 356.464,148.217C355.814,148.7 355.167,149.185 354.52,149.671C347.247,141.139 337.939,134.309 327.606,130.071L322.932,124.652C316.872,117.626 310.026,111.204 302.428,105.942Z" style="fill:white;"/>
    </g>
    <g transform="matrix(9.25776e-17,-1.51191,1.51191,9.25776e-17,-129.342,1839.5)">
        <path d="M302.428,105.942L689.695,105.942C682.097,111.204 675.251,117.626 669.191,124.652L664.521,130.066C654.18,134.306 644.867,141.139 637.591,149.676C610.486,129.334 585.723,115.572 549.381,114.263C530.291,113.575 511.938,117.97 496.075,127.16C479.908,117.754 461.453,113.59 442.742,114.263C408.191,115.509 383.44,128.121 356.464,148.217C355.814,148.7 355.167,149.185 354.52,149.671C347.247,141.139 337.939,134.309 327.606,130.071L322.932,124.652C316.872,117.626 310.026,111.204 302.428,105.942Z" style="fill:white;"/>
    </g>
    <g transform="matrix(9.25776e-17,-1.51191,1.51191,9.25776e-17,1710.16,1839.5)">
        <path d="M302.428,105.942L689.695,105.942C682.097,111.204 675.251,117.626 669.191,124.652L664.521,130.066C654.18,134.306 644.867,141.139 637.591,149.676C610.486,129.334 585.723,115.572 549.381,114.263C530.291,113.575 511.938,117.97 496.075,127.16C479.908,117.754 461.453,113.59 442.742,114.263C408.191,115.509 383.44,128.121 356.464,148.217C355.814,148.7 355.167,149.185 354.52,149.671C347.247,141.139 337.939,134.309 327.606,130.071L322.932,124.652C316.872,117.626 310.026,111.204 302.428,105.942Z" style="fill:white;"/>
    </g>
    <g transform="matrix(1.51191,0,0,-1.51191,341.338,2308.34)">
        <path d="M302.428,105.942L689.695,105.942C682.097,111.204 675.251,117.626 669.191,124.652L664.521,130.066C654.18,134.306 644.867,141.139 637.591,149.676C610.486,129.334 585.723,115.572 549.381,114.263C530.291,113.575 511.938,117.97 496.075,127.16C479.908,117.754 461.453,113.59 442.742,114.263C408.191,115.509 383.44,128.121 356.464,148.217C355.814,148.7 355.167,149.185 354.52,149.671C347.247,141.139 337.939,134.309 327.606,130.071L322.932,124.652C316.872,117.626 310.026,111.204 302.428,105.942Z" style="fill:white;"/>
    </g>
    <g transform="matrix(1.37609,0,0,1.26956,-13.1391,34.3908)">
        <path d="M256.261,-27.089L9.548,-27.089L9.548,240.326L256.261,240.326L256.261,-27.089ZM233.976,-2.933L233.976,216.171C233.976,216.171 31.833,216.171 31.833,216.171C31.833,216.171 31.833,-2.933 31.833,-2.933L233.976,-2.933Z"/>
    </g>
    <g transform="matrix(1.37609,0,0,1.26956,-13.1391,1873.89)">
        <path d="M256.261,-27.089L9.548,-27.089L9.548,240.326L256.261,240.326L256.261,-27.089ZM233.976,-2.933L233.976,216.171C233.976,216.171 31.833,216.171 31.833,216.171C31.833,216.171 31.833,58.555 31.833,-2.933L233.976,-2.933Z"/>
    </g>
    <g transform="matrix(1.37609,0,0,1.26956,1826.36,34.3908)">
        <path d="M256.261,-27.089L9.548,-27.089L9.548,240.326L256.261,240.326L256.261,-27.089ZM233.976,-2.933L233.976,216.171C233.976,216.171 31.833,216.171 31.833,216.171C31.833,216.171 31.833,58.555 31.833,-2.933L233.976,-2.933Z"/>
    </g>
    <g transform="matrix(1.37609,0,0,1.26956,1826.36,1873.89)">
        <path d="M256.261,-27.089L9.548,-27.089L9.548,240.326L256.261,240.326L256.261,-27.089ZM233.976,-2.933L233.976,216.171C233.976,216.171 31.833,216.171 31.833,216.171C31.833,165.351 31.833,47.887 31.833,-2.933L233.976,-2.933Z"/>
    </g>
</svg>
