<?xml version="1.0" encoding="UTF-8" standalone="no"?>
<!DOCTYPE svg PUBLIC "-//W3C//DTD SVG 1.1//EN" "http://www.w3.org/Graphics/SVG/1.1/DTD/svg11.dtd">
<svg width="100%" height="100%" viewBox="0 0 293 293" version="1.1" xmlns="http://www.w3.org/2000/svg" xmlns:xlink="http://www.w3.org/1999/xlink" xml:space="preserve" xmlns:serif="http://www.serif.com/" style="fill-rule:evenodd;clip-rule:evenodd;stroke-linejoin:round;stroke-miterlimit:2;">
    <g transform="matrix(1,0,0,1,-84.7277,-66.7809)">
        <path d="M174.344,67.548L85.274,67.548L85.274,156.617L174.344,156.617L174.344,67.548ZM98.246,80.52L116.132,80.52C108.136,83.991 101.717,90.41 98.246,98.406L98.246,80.52ZM143.487,80.52L161.372,80.52L161.372,98.406C157.901,90.41 151.482,83.991 143.487,80.52ZM161.372,125.76L161.372,143.645L143.487,143.645C151.481,140.174 157.901,133.755 161.372,125.76ZM116.132,143.645L98.246,143.645L98.246,125.76C101.717,133.755 108.136,140.174 116.132,143.645ZM129.81,82.108C146.361,82.108 159.783,95.531 159.783,112.083C159.783,128.634 146.361,142.056 129.81,142.056C113.258,142.056 99.835,128.634 99.835,112.083C99.835,95.531 113.258,82.108 129.81,82.108ZM129.81,93.528C132.251,95.932 133.819,99.664 133.819,103.853C133.819,105.123 133.676,106.352 133.406,107.514L133.387,107.595L133.385,107.605L133.371,107.66L133.368,107.675L133.349,107.754C133.335,107.807 133.322,107.86 133.308,107.913L133.287,107.992C133.211,108.273 133.143,108.546 133.079,108.812C133.345,108.749 133.618,108.679 133.899,108.603L133.978,108.583C134.031,108.569 134.084,108.556 134.137,108.543L134.217,108.523L134.23,108.52L134.286,108.507L134.297,108.504L134.377,108.485C135.539,108.216 136.767,108.072 138.038,108.072C142.228,108.072 145.96,109.64 148.363,112.083C145.96,114.524 142.228,116.093 138.038,116.093C136.768,116.093 135.539,115.948 134.377,115.68L134.297,115.66L134.286,115.658L134.23,115.644L134.217,115.641L134.137,115.622C134.084,115.608 134.031,115.595 133.978,115.581L133.899,115.56C133.61,115.483 133.331,115.412 133.057,115.347C133.095,115.489 133.134,115.633 133.178,115.779L133.2,115.857L133.205,115.872L133.223,115.935L133.228,115.954L133.245,116.014L133.287,116.172L133.308,116.25C133.322,116.304 133.335,116.357 133.349,116.409L133.368,116.49L133.371,116.504L133.385,116.559L133.387,116.57L133.406,116.65C133.676,117.811 133.819,119.04 133.819,120.311C133.819,124.5 132.251,128.233 129.81,130.636C127.367,128.233 125.798,124.5 125.798,120.311C125.798,119.041 125.943,117.811 126.212,116.65L126.231,116.57L126.233,116.559L126.247,116.504L126.25,116.49L126.27,116.409C126.283,116.357 126.296,116.304 126.311,116.25L126.331,116.172L126.352,116.093L126.374,116.014L126.39,115.954L126.396,115.935L126.413,115.872L126.418,115.857L126.441,115.779C126.486,115.625 126.528,115.473 126.566,115.324C126.418,115.363 126.266,115.405 126.112,115.451L126.034,115.473L126.019,115.477L125.956,115.495L125.937,115.5L125.877,115.517L125.798,115.539L125.72,115.56L125.64,115.581C125.587,115.595 125.534,115.608 125.481,115.622L125.401,115.641L125.388,115.644L125.332,115.658L125.322,115.66L125.241,115.68C124.079,115.949 122.851,116.093 121.58,116.093C117.39,116.093 113.658,114.524 111.255,112.083C113.658,109.64 117.39,108.072 121.58,108.072C122.851,108.072 124.079,108.216 125.241,108.485L125.322,108.504L125.332,108.507L125.388,108.52L125.401,108.523L125.481,108.543C125.534,108.556 125.587,108.569 125.64,108.583L125.72,108.603L125.798,108.625L125.877,108.647L125.937,108.663L125.956,108.668L126.019,108.686L126.034,108.691L126.112,108.714C126.258,108.756 126.402,108.796 126.545,108.834C126.479,108.561 126.408,108.281 126.331,107.992L126.311,107.913C126.296,107.86 126.283,107.807 126.27,107.754L126.25,107.675L126.247,107.66L126.233,107.605L126.231,107.595L126.212,107.514C125.943,106.352 125.798,105.124 125.798,103.853C125.798,99.664 127.367,95.932 129.81,93.528ZM129.81,91.506C141.171,91.506 150.386,100.72 150.386,112.083C150.386,123.444 141.171,132.659 129.81,132.659C118.447,132.659 109.233,123.444 109.233,112.083C109.233,100.72 118.447,91.506 129.81,91.506ZM93.44,75.714L166.178,75.714L166.178,148.451L93.44,148.451L93.44,75.714Z" style="fill:rgb(35,31,32);"/>
    </g>
    <g transform="matrix(1,0,0,1,-85.274,-67.548)">
        <path d="M174.344,67.548L85.274,67.548L85.274,156.617L174.344,156.617L174.344,67.548ZM98.246,80.52L116.132,80.52C108.136,83.991 101.717,90.41 98.246,98.406L98.246,80.52ZM143.487,80.52L161.372,80.52L161.372,98.406C157.901,90.41 151.482,83.991 143.487,80.52ZM161.372,125.76L161.372,143.645L143.487,143.645C151.481,140.174 157.901,133.755 161.372,125.76ZM116.132,143.645L98.246,143.645L98.246,125.76C101.717,133.755 108.136,140.174 116.132,143.645ZM129.81,82.108C146.361,82.108 159.783,95.531 159.783,112.083C159.783,128.634 146.361,142.056 129.81,142.056C113.258,142.056 99.835,128.634 99.835,112.083C99.835,95.531 113.258,82.108 129.81,82.108ZM129.81,93.528C132.251,95.932 133.819,99.664 133.819,103.853C133.819,105.123 133.676,106.352 133.406,107.514L133.387,107.595L133.385,107.605L133.371,107.66L133.368,107.675L133.349,107.754C133.335,107.807 133.322,107.86 133.308,107.913L133.287,107.992C133.211,108.273 133.143,108.546 133.079,108.812C133.345,108.749 133.618,108.679 133.899,108.603L133.978,108.583C134.031,108.569 134.084,108.556 134.137,108.543L134.217,108.523L134.23,108.52L134.286,108.507L134.297,108.504L134.377,108.485C135.539,108.216 136.767,108.072 138.038,108.072C142.228,108.072 145.96,109.64 148.363,112.083C145.96,114.524 142.228,116.093 138.038,116.093C136.768,116.093 135.539,115.948 134.377,115.68L134.297,115.66L134.286,115.658L134.23,115.644L134.217,115.641L134.137,115.622C134.084,115.608 134.031,115.595 133.978,115.581L133.899,115.56C133.61,115.483 133.331,115.412 133.057,115.347C133.095,115.489 133.134,115.633 133.178,115.779L133.2,115.857L133.205,115.872L133.223,115.935L133.228,115.954L133.245,116.014L133.287,116.172L133.308,116.25C133.322,116.304 133.335,116.357 133.349,116.409L133.368,116.49L133.371,116.504L133.385,116.559L133.387,116.57L133.406,116.65C133.676,117.811 133.819,119.04 133.819,120.311C133.819,124.5 132.251,128.233 129.81,130.636C127.367,128.233 125.798,124.5 125.798,120.311C125.798,119.041 125.943,117.811 126.212,116.65L126.231,116.57L126.233,116.559L126.247,116.504L126.25,116.49L126.27,116.409C126.283,116.357 126.296,116.304 126.311,116.25L126.331,116.172L126.352,116.093L126.374,116.014L126.39,115.954L126.396,115.935L126.413,115.872L126.418,115.857L126.441,115.779C126.486,115.625 126.528,115.473 126.566,115.324C126.418,115.363 126.266,115.405 126.112,115.451L126.034,115.473L126.019,115.477L125.956,115.495L125.937,115.5L125.877,115.517L125.798,115.539L125.72,115.56L125.64,115.581C125.587,115.595 125.534,115.608 125.481,115.622L125.401,115.641L125.388,115.644L125.332,115.658L125.322,115.66L125.241,115.68C124.079,115.949 122.851,116.093 121.58,116.093C117.39,116.093 113.658,114.524 111.255,112.083C113.658,109.64 117.39,108.072 121.58,108.072C122.851,108.072 124.079,108.216 125.241,108.485L125.322,108.504L125.332,108.507L125.388,108.52L125.401,108.523L125.481,108.543C125.534,108.556 125.587,108.569 125.64,108.583L125.72,108.603L125.798,108.625L125.877,108.647L125.937,108.663L125.956,108.668L126.019,108.686L126.034,108.691L126.112,108.714C126.258,108.756 126.402,108.796 126.545,108.834C126.479,108.561 126.408,108.281 126.331,107.992L126.311,107.913C126.296,107.86 126.283,107.807 126.27,107.754L126.25,107.675L126.247,107.66L126.233,107.605L126.231,107.595L126.212,107.514C125.943,106.352 125.798,105.124 125.798,103.853C125.798,99.664 127.367,95.932 129.81,93.528ZM129.81,91.506C141.171,91.506 150.386,100.72 150.386,112.083C150.386,123.444 141.171,132.659 129.81,132.659C118.447,132.659 109.233,123.444 109.233,112.083C109.233,100.72 118.447,91.506 129.81,91.506ZM93.44,75.714L166.178,75.714L166.178,148.451L93.44,148.451L93.44,75.714Z" style="fill:rgb(35,31,32);"/>
    </g>
    <g transform="matrix(1,0,0,1,-85.274,135.452)">
        <path d="M174.344,67.548L85.274,67.548L85.274,156.617L174.344,156.617L174.344,67.548ZM98.246,80.52L116.132,80.52C108.136,83.991 101.717,90.41 98.246,98.406L98.246,80.52ZM143.487,80.52L161.372,80.52L161.372,98.406C157.901,90.41 151.482,83.991 143.487,80.52ZM161.372,125.76L161.372,143.645L143.487,143.645C151.481,140.174 157.901,133.755 161.372,125.76ZM116.132,143.645L98.246,143.645L98.246,125.76C101.717,133.755 108.136,140.174 116.132,143.645ZM129.81,82.108C146.361,82.108 159.783,95.531 159.783,112.083C159.783,128.634 146.361,142.056 129.81,142.056C113.258,142.056 99.835,128.634 99.835,112.083C99.835,95.531 113.258,82.108 129.81,82.108ZM129.81,93.528C132.251,95.932 133.819,99.664 133.819,103.853C133.819,105.123 133.676,106.352 133.406,107.514L133.387,107.595L133.385,107.605L133.371,107.66L133.368,107.675L133.349,107.754C133.335,107.807 133.322,107.86 133.308,107.913L133.287,107.992C133.211,108.273 133.143,108.546 133.079,108.812C133.345,108.749 133.618,108.679 133.899,108.603L133.978,108.583C134.031,108.569 134.084,108.556 134.137,108.543L134.217,108.523L134.23,108.52L134.286,108.507L134.297,108.504L134.377,108.485C135.539,108.216 136.767,108.072 138.038,108.072C142.228,108.072 145.96,109.64 148.363,112.083C145.96,114.524 142.228,116.093 138.038,116.093C136.768,116.093 135.539,115.948 134.377,115.68L134.297,115.66L134.286,115.658L134.23,115.644L134.217,115.641L134.137,115.622C134.084,115.608 134.031,115.595 133.978,115.581L133.899,115.56C133.61,115.483 133.331,115.412 133.057,115.347C133.095,115.489 133.134,115.633 133.178,115.779L133.2,115.857L133.205,115.872L133.223,115.935L133.228,115.954L133.245,116.014L133.287,116.172L133.308,116.25C133.322,116.304 133.335,116.357 133.349,116.409L133.368,116.49L133.371,116.504L133.385,116.559L133.387,116.57L133.406,116.65C133.676,117.811 133.819,119.04 133.819,120.311C133.819,124.5 132.251,128.233 129.81,130.636C127.367,128.233 125.798,124.5 125.798,120.311C125.798,119.041 125.943,117.811 126.212,116.65L126.231,116.57L126.233,116.559L126.247,116.504L126.25,116.49L126.27,116.409C126.283,116.357 126.296,116.304 126.311,116.25L126.331,116.172L126.352,116.093L126.374,116.014L126.39,115.954L126.396,115.935L126.413,115.872L126.418,115.857L126.441,115.779C126.486,115.625 126.528,115.473 126.566,115.324C126.418,115.363 126.266,115.405 126.112,115.451L126.034,115.473L126.019,115.477L125.956,115.495L125.937,115.5L125.877,115.517L125.798,115.539L125.72,115.56L125.64,115.581C125.587,115.595 125.534,115.608 125.481,115.622L125.401,115.641L125.388,115.644L125.332,115.658L125.322,115.66L125.241,115.68C124.079,115.949 122.851,116.093 121.58,116.093C117.39,116.093 113.658,114.524 111.255,112.083C113.658,109.64 117.39,108.072 121.58,108.072C122.851,108.072 124.079,108.216 125.241,108.485L125.322,108.504L125.332,108.507L125.388,108.52L125.401,108.523L125.481,108.543C125.534,108.556 125.587,108.569 125.64,108.583L125.72,108.603L125.798,108.625L125.877,108.647L125.937,108.663L125.956,108.668L126.019,108.686L126.034,108.691L126.112,108.714C126.258,108.756 126.402,108.796 126.545,108.834C126.479,108.561 126.408,108.281 126.331,107.992L126.311,107.913C126.296,107.86 126.283,107.807 126.27,107.754L126.25,107.675L126.247,107.66L126.233,107.605L126.231,107.595L126.212,107.514C125.943,106.352 125.798,105.124 125.798,103.853C125.798,99.664 127.367,95.932 129.81,93.528ZM129.81,91.506C141.171,91.506 150.386,100.72 150.386,112.083C150.386,123.444 141.171,132.659 129.81,132.659C118.447,132.659 109.233,123.444 109.233,112.083C109.233,100.72 118.447,91.506 129.81,91.506ZM93.44,75.714L166.178,75.714L166.178,148.451L93.44,148.451L93.44,75.714Z" style="fill:rgb(35,31,32);"/>
    </g>
    <g transform="matrix(1,0,0,1,117.726,-67.548)">
        <path d="M174.344,67.548L85.274,67.548L85.274,156.617L174.344,156.617L174.344,67.548ZM98.246,80.52L116.132,80.52C108.136,83.991 101.717,90.41 98.246,98.406L98.246,80.52ZM143.487,80.52L161.372,80.52L161.372,98.406C157.901,90.41 151.482,83.991 143.487,80.52ZM161.372,125.76L161.372,143.645L143.487,143.645C151.481,140.174 157.901,133.755 161.372,125.76ZM116.132,143.645L98.246,143.645L98.246,125.76C101.717,133.755 108.136,140.174 116.132,143.645ZM129.81,82.108C146.361,82.108 159.783,95.531 159.783,112.083C159.783,128.634 146.361,142.056 129.81,142.056C113.258,142.056 99.835,128.634 99.835,112.083C99.835,95.531 113.258,82.108 129.81,82.108ZM129.81,93.528C132.251,95.932 133.819,99.664 133.819,103.853C133.819,105.123 133.676,106.352 133.406,107.514L133.387,107.595L133.385,107.605L133.371,107.66L133.368,107.675L133.349,107.754C133.335,107.807 133.322,107.86 133.308,107.913L133.287,107.992C133.211,108.273 133.143,108.546 133.079,108.812C133.345,108.749 133.618,108.679 133.899,108.603L133.978,108.583C134.031,108.569 134.084,108.556 134.137,108.543L134.217,108.523L134.23,108.52L134.286,108.507L134.297,108.504L134.377,108.485C135.539,108.216 136.767,108.072 138.038,108.072C142.228,108.072 145.96,109.64 148.363,112.083C145.96,114.524 142.228,116.093 138.038,116.093C136.768,116.093 135.539,115.948 134.377,115.68L134.297,115.66L134.286,115.658L134.23,115.644L134.217,115.641L134.137,115.622C134.084,115.608 134.031,115.595 133.978,115.581L133.899,115.56C133.61,115.483 133.331,115.412 133.057,115.347C133.095,115.489 133.134,115.633 133.178,115.779L133.2,115.857L133.205,115.872L133.223,115.935L133.228,115.954L133.245,116.014L133.287,116.172L133.308,116.25C133.322,116.304 133.335,116.357 133.349,116.409L133.368,116.49L133.371,116.504L133.385,116.559L133.387,116.57L133.406,116.65C133.676,117.811 133.819,119.04 133.819,120.311C133.819,124.5 132.251,128.233 129.81,130.636C127.367,128.233 125.798,124.5 125.798,120.311C125.798,119.041 125.943,117.811 126.212,116.65L126.231,116.57L126.233,116.559L126.247,116.504L126.25,116.49L126.27,116.409C126.283,116.357 126.296,116.304 126.311,116.25L126.331,116.172L126.352,116.093L126.374,116.014L126.39,115.954L126.396,115.935L126.413,115.872L126.418,115.857L126.441,115.779C126.486,115.625 126.528,115.473 126.566,115.324C126.418,115.363 126.266,115.405 126.112,115.451L126.034,115.473L126.019,115.477L125.956,115.495L125.937,115.5L125.877,115.517L125.798,115.539L125.72,115.56L125.64,115.581C125.587,115.595 125.534,115.608 125.481,115.622L125.401,115.641L125.388,115.644L125.332,115.658L125.322,115.66L125.241,115.68C124.079,115.949 122.851,116.093 121.58,116.093C117.39,116.093 113.658,114.524 111.255,112.083C113.658,109.64 117.39,108.072 121.58,108.072C122.851,108.072 124.079,108.216 125.241,108.485L125.322,108.504L125.332,108.507L125.388,108.52L125.401,108.523L125.481,108.543C125.534,108.556 125.587,108.569 125.64,108.583L125.72,108.603L125.798,108.625L125.877,108.647L125.937,108.663L125.956,108.668L126.019,108.686L126.034,108.691L126.112,108.714C126.258,108.756 126.402,108.796 126.545,108.834C126.479,108.561 126.408,108.281 126.331,107.992L126.311,107.913C126.296,107.86 126.283,107.807 126.27,107.754L126.25,107.675L126.247,107.66L126.233,107.605L126.231,107.595L126.212,107.514C125.943,106.352 125.798,105.124 125.798,103.853C125.798,99.664 127.367,95.932 129.81,93.528ZM129.81,91.506C141.171,91.506 150.386,100.72 150.386,112.083C150.386,123.444 141.171,132.659 129.81,132.659C118.447,132.659 109.233,123.444 109.233,112.083C109.233,100.72 118.447,91.506 129.81,91.506ZM93.44,75.714L166.178,75.714L166.178,148.451L93.44,148.451L93.44,75.714Z" style="fill:rgb(35,31,32);"/>
    </g>
    <g transform="matrix(1,0,0,1,117.726,135.452)">
        <path d="M174.344,67.548L85.274,67.548L85.274,156.617L174.344,156.617L174.344,67.548ZM98.246,80.52L116.132,80.52C108.136,83.991 101.717,90.41 98.246,98.406L98.246,80.52ZM143.487,80.52L161.372,80.52L161.372,98.406C157.901,90.41 151.482,83.991 143.487,80.52ZM161.372,125.76L161.372,143.645L143.487,143.645C151.481,140.174 157.901,133.755 161.372,125.76ZM116.132,143.645L98.246,143.645L98.246,125.76C101.717,133.755 108.136,140.174 116.132,143.645ZM129.81,82.108C146.361,82.108 159.783,95.531 159.783,112.083C159.783,128.634 146.361,142.056 129.81,142.056C113.258,142.056 99.835,128.634 99.835,112.083C99.835,95.531 113.258,82.108 129.81,82.108ZM129.81,93.528C132.251,95.932 133.819,99.664 133.819,103.853C133.819,105.123 133.676,106.352 133.406,107.514L133.387,107.595L133.385,107.605L133.371,107.66L133.368,107.675L133.349,107.754C133.335,107.807 133.322,107.86 133.308,107.913L133.287,107.992C133.211,108.273 133.143,108.546 133.079,108.812C133.345,108.749 133.618,108.679 133.899,108.603L133.978,108.583C134.031,108.569 134.084,108.556 134.137,108.543L134.217,108.523L134.23,108.52L134.286,108.507L134.297,108.504L134.377,108.485C135.539,108.216 136.767,108.072 138.038,108.072C142.228,108.072 145.96,109.64 148.363,112.083C145.96,114.524 142.228,116.093 138.038,116.093C136.768,116.093 135.539,115.948 134.377,115.68L134.297,115.66L134.286,115.658L134.23,115.644L134.217,115.641L134.137,115.622C134.084,115.608 134.031,115.595 133.978,115.581L133.899,115.56C133.61,115.483 133.331,115.412 133.057,115.347C133.095,115.489 133.134,115.633 133.178,115.779L133.2,115.857L133.205,115.872L133.223,115.935L133.228,115.954L133.245,116.014L133.287,116.172L133.308,116.25C133.322,116.304 133.335,116.357 133.349,116.409L133.368,116.49L133.371,116.504L133.385,116.559L133.387,116.57L133.406,116.65C133.676,117.811 133.819,119.04 133.819,120.311C133.819,124.5 132.251,128.233 129.81,130.636C127.367,128.233 125.798,124.5 125.798,120.311C125.798,119.041 125.943,117.811 126.212,116.65L126.231,116.57L126.233,116.559L126.247,116.504L126.25,116.49L126.27,116.409C126.283,116.357 126.296,116.304 126.311,116.25L126.331,116.172L126.352,116.093L126.374,116.014L126.39,115.954L126.396,115.935L126.413,115.872L126.418,115.857L126.441,115.779C126.486,115.625 126.528,115.473 126.566,115.324C126.418,115.363 126.266,115.405 126.112,115.451L126.034,115.473L126.019,115.477L125.956,115.495L125.937,115.5L125.877,115.517L125.798,115.539L125.72,115.56L125.64,115.581C125.587,115.595 125.534,115.608 125.481,115.622L125.401,115.641L125.388,115.644L125.332,115.658L125.322,115.66L125.241,115.68C124.079,115.949 122.851,116.093 121.58,116.093C117.39,116.093 113.658,114.524 111.255,112.083C113.658,109.64 117.39,108.072 121.58,108.072C122.851,108.072 124.079,108.216 125.241,108.485L125.322,108.504L125.332,108.507L125.388,108.52L125.401,108.523L125.481,108.543C125.534,108.556 125.587,108.569 125.64,108.583L125.72,108.603L125.798,108.625L125.877,108.647L125.937,108.663L125.956,108.668L126.019,108.686L126.034,108.691L126.112,108.714C126.258,108.756 126.402,108.796 126.545,108.834C126.479,108.561 126.408,108.281 126.331,107.992L126.311,107.913C126.296,107.86 126.283,107.807 126.27,107.754L126.25,107.675L126.247,107.66L126.233,107.605L126.231,107.595L126.212,107.514C125.943,106.352 125.798,105.124 125.798,103.853C125.798,99.664 127.367,95.932 129.81,93.528ZM129.81,91.506C141.171,91.506 150.386,100.72 150.386,112.083C150.386,123.444 141.171,132.659 129.81,132.659C118.447,132.659 109.233,123.444 109.233,112.083C109.233,100.72 118.447,91.506 129.81,91.506ZM93.44,75.714L166.178,75.714L166.178,148.451L93.44,148.451L93.44,75.714Z" style="fill:rgb(35,31,32);"/>
    </g>
    <g transform="matrix(1.14666,0,0,1.14666,-1333.39,-347.233)">
        <path d="M1248.4,302.821L1256.54,302.821L1256.54,372.141L1323.91,372.141L1323.91,311.197L1270.07,311.197L1270.07,358.275L1310.45,358.275L1310.45,325.063L1283.53,325.063L1283.53,344.41L1296.99,344.41L1296.99,338.928C1292.51,338.928 1293.34,338.927 1288.86,338.927L1288.86,330.545L1305.13,330.545L1305.13,352.794L1275.39,352.794L1275.39,316.679L1318.59,316.679L1318.59,366.659L1261.94,366.659L1261.94,302.821L1332.05,302.821L1332.05,380.525L1248.4,380.525L1248.4,302.821Z" style="fill:rgb(35,31,32);"/>
    </g>
    <g transform="matrix(1.14666,0,0,1.14666,-1333.39,-144.233)">
        <path d="M1248.4,302.821L1256.54,302.821L1256.54,372.141L1323.91,372.141L1323.91,311.197L1270.07,311.197L1270.07,358.275L1310.45,358.275L1310.45,325.063L1283.53,325.063L1283.53,344.41L1296.99,344.41L1296.99,338.928C1292.51,338.928 1293.34,338.927 1288.86,338.927L1288.86,330.545L1305.13,330.545L1305.13,352.794L1275.39,352.794L1275.39,316.679L1318.59,316.679L1318.59,366.659L1261.94,366.659L1261.94,302.821L1332.05,302.821L1332.05,380.525L1248.4,380.525L1248.4,302.821Z" style="fill:rgb(35,31,32);"/>
    </g>
    <g transform="matrix(7.02126e-17,-1.14666,1.14666,7.02126e-17,-347.233,1625.49)">
        <path d="M1248.4,302.821L1256.54,302.821L1256.54,372.141L1323.91,372.141L1323.91,311.197L1270.07,311.197L1270.07,358.275L1310.45,358.275L1310.45,325.063L1283.53,325.063L1283.53,344.41L1296.99,344.41L1296.99,338.928C1292.51,338.928 1293.34,338.927 1288.86,338.927L1288.86,330.545L1305.13,330.545L1305.13,352.794L1275.39,352.794L1275.39,316.679L1318.59,316.679L1318.59,366.659L1261.94,366.659L1261.94,302.821L1332.05,302.821L1332.05,380.525L1248.4,380.525L1248.4,302.821Z" style="fill:rgb(35,31,32);"/>
    </g>
    <g transform="matrix(-7.02126e-17,-1.14666,-1.14666,7.02126e-17,639.333,1625.49)">
        <path d="M1248.4,302.821L1256.54,302.821L1256.54,372.141L1323.91,372.141L1323.91,311.197L1270.07,311.197L1270.07,358.275L1310.45,358.275L1310.45,325.063L1283.53,325.063L1283.53,344.41L1296.99,344.41L1296.99,338.928C1292.51,338.928 1293.34,338.927 1288.86,338.927L1288.86,330.545L1305.13,330.545L1305.13,352.794L1275.39,352.794L1275.39,316.679L1318.59,316.679L1318.59,366.659L1261.94,366.659L1261.94,302.821L1332.05,302.821L1332.05,380.525L1248.4,380.525L1248.4,302.821Z" style="fill:rgb(35,31,32);"/>
    </g>
</svg>
